<?xml version="1.0" encoding="UTF-8" standalone="no"?>
<!-- Created with Inkscape (http://www.inkscape.org/) -->

<svg
   version="1.1"
   id="svg1"
   width="4096"
   height="4096"
   viewBox="0 0 4096 4096"
   sodipodi:docname="com.tomiyou.ivyTerm.svg"
   inkscape:version="1.4 (e7c3feb100, 2024-10-09)"
   xmlns:inkscape="http://www.inkscape.org/namespaces/inkscape"
   xmlns:sodipodi="http://sodipodi.sourceforge.net/DTD/sodipodi-0.dtd"
   xmlns="http://www.w3.org/2000/svg"
   xmlns:svg="http://www.w3.org/2000/svg">
  <defs
     id="defs1" />
  <sodipodi:namedview
     id="namedview1"
     pagecolor="#ffffff"
     bordercolor="#000000"
     borderopacity="0.25"
     inkscape:showpageshadow="2"
     inkscape:pageopacity="0.0"
     inkscape:pagecheckerboard="0"
     inkscape:deskcolor="#d1d1d1"
     inkscape:zoom="0.1767767"
     inkscape:cx="2701.1478"
     inkscape:cy="2265.5701"
     inkscape:window-width="1920"
     inkscape:window-height="1011"
     inkscape:window-x="0"
     inkscape:window-y="0"
     inkscape:window-maximized="1"
     inkscape:current-layer="layer1">
    <inkscape:page
       x="0"
       y="0"
       inkscape:label="1"
       id="page1"
       width="4096"
       height="4096"
       margin="0"
       bleed="0" />
  </sodipodi:namedview>
  <g
     inkscape:groupmode="layer"
     id="layer1"
     inkscape:label="Background"
     style="display:none">
    <rect
       style="display:inline;fill:#ff0000;stroke:#ffffff;stroke-width:0"
       id="rect1"
       width="4096"
       height="4096"
       x="0"
       y="0" />
  </g>
  <rect
     style="display:inline;fill:#1a1a1a;stroke:#ffffff;stroke-width:65;stroke-dasharray:none"
     id="rect44"
     width="3429.5864"
     height="3429.5864"
     x="333.20679"
     y="333.20679"
     rx="473.13425"
     ry="473.13422"
     inkscape:label="terminal" />
  <g
     id="g1"
     inkscape:groupmode="layer"
     inkscape:label="ivy"
     transform="matrix(0.74472686,0,0,0.74472676,10.907807,466.75511)"
     style="display:inline">
    <g
       id="group-R5"
       transform="translate(48,-20.367383)">
      <path
         id="path2"
         d="M 5343.3199,5330.9526 H 0 V -12.367249 H 5343.3199 V 5330.9526"
         style="display:none;fill:#211d1d;fill-opacity:1;fill-rule:nonzero;stroke:none;stroke-width:0.133333" />
      <path
         id="path3"
         d="m 3229.2666,3611.046 c -20.5733,10.8266 -41.88,19.8933 -63.5067,28.1733 5.7867,-7.16 11.5067,-14.3867 17.04,-21.7467 22.3334,-30.88 66.7334,-64.52 104.6134,-40.16 0.1066,0.1067 0.1733,0.2267 0.28,0.3334 -19.36,11.3333 -38.6934,22.72 -58.4267,33.4 z m -513.6267,117.6 c -51.4266,1.8666 -102.9733,3.48 -154.4133,2.9066 -3.0133,-0.093 -6.0133,-0.2666 -9.0133,-0.4 11.7466,-19.5866 22.7866,-40.28 42.36,-52.9333 25.0266,-13.6 52.5466,-18.4267 81.04,-19.08 26.4,-0.64 52.04,8.92 73.48,23.9333 16.2533,11.5734 30.16,26.5467 45.04,40.0667 -26.08,2.8267 -52.2134,5.0133 -78.4934,5.5067 z m -941.6533,-396.6667 c -3.0666,-3.64 -6.2,-7.2266 -9.32,-10.8266 12.16,-2.08 24.3467,-3.5867 36.6,-3.1334 58.5467,11.2534 52.1734,55.76 43.0934,100.1867 -2.2534,-2.44 -4.5467,-4.8267 -6.7734,-7.3067 -22.4666,-25.2667 -41.9866,-52.9467 -63.6,-78.92 z m -91.84,-31.6266 c -10.68,-2.28 -21.3733,-6.4267 -28.64,-14.92 -12.9066,-16.0934 -24.3066,-34.6 -27.5333,-55.1067 5.84,4.7733 11.6667,9.5733 17.5467,14.3333 20.6266,18.1467 40.12,37.5734 59.2133,57.36 -6.8667,0.16 -13.7333,-0.28 -20.5867,-1.6666 z m -503.0453,-166.0934 c -40.1627,21.0667 -59.8173,17.6267 -102.8693,11.4 -10.524,-1.2 -20.7254,-3.16 -30.7,-6.3066 9.8653,-2.76 19.7986,-5.2934 29.832,-7.4667 25.1653,-5.5333 51.7066,-9.1867 78.812,-14.28 21.82,-4.5467 43.8,-8.2133 65.8866,-10.8133 -13.28,9.6 -26.844,19.0666 -40.9613,27.4666 z M 4427.4532,796.67273 c -11.6,-4.70666 -23.4933,-8.94666 -34,-15.89333 -18.0533,-13.56 -32.2533,-31.76 -45.32,-50 -21.16,-33.44 -7.9066,-77.21333 17.8534,-104.2 9.2666,-9.50666 19.24,-18.84 31.72,-23.61333 16.9466,64.34667 43.6666,125.81333 72.4266,185.82666 4.16,9.2 8.2267,18.44 12.2267,27.70667 -18.52,-6.02667 -37.12,-11.76 -54.9067,-19.82667 z m 319.7067,1084.47997 c -13.7334,-45.24 -42.12,-71.1467 -87.2133,-84.72 -60.5734,-20.68 -127.08,-14.2533 -187.6,3.5333 -1.3734,0.5467 -2.7734,1.0267 -4.1734,1.5334 2.5734,-6.6667 5.2,-13.3334 7.7467,-20.0134 13.6133,-37.8133 24.8667,-76.4133 39.2,-113.9733 39.8133,-116.28 77.24,-234.1467 95.24,-355.9867 0.4133,1.8134 0.8,3.6267 1.1467,5.4534 3.36,22.5066 4.0533,45.68 -1.04,67.9866 -5.1067,21.52 -12.4267,42.5867 -13.36,64.8534 -0.12,2.5066 -0.013,6.04 1.7066,8.0533 8.44,7.1867 12.9067,-8.5333 15.5334,-14.4 6.3466,-16.36 13.3066,-32.5333 18.56,-49.2933 5.84,-18.24 8.36,-37.4667 7.2,-56.6 -0.28,-26.2667 -9.0134,-51.6 -19.0267,-75.6134 -1,-2.6 -2.12,-5.4 -3.3733,-8.1466 8.3866,-85.12 4.7466,-171.08 -10.6134,-255.33338 -7.6266,-32.54662 -17.0133,-64.66662 -26.7866,-96.65329 1.7466,1.94667 5.08,0.0133 4.5866,-2.53333 0.48,-1.65334 0.2,-3.72 0,-5.21334 -2.6,-15.65333 -9.68,-27.98666 -19.44,-37.87999 -18.2933,-50.36 -39.8933,-99.44 -58.8266,-149.53333 -19.5467,-56.72 -32.9867,-115.64 -41.1467,-175.05333 -6.2533,-41.05334 -11.7733,-82.21333 -9,-123.82667 0.08,-0.8 0.2,-1.6 0.28,-2.4 6.64,12.26667 14.36,23.90667 23.48,34.62667 28.8267,31.42666 73.0533,51.09333 115.96,51.89333 19.0133,2.2 37.4933,-2.09333 55.8,-6.61333 3.88,-0.86667 8.3467,-1.10667 12.4267,-1.17334 4.7866,-0.69333 10.7199,-5.17333 8.7466,-10.45333 -0.6,-6.24 -7.1066,-9.28 -12.8133,-9.12 -9.1467,-1.10666 -18.2267,-2.6 -27.4,-3.50666 -41.1067,-3.48 -83.2133,-12.65334 -115.2267,-40.33334 -26.52,-25.90666 -39.48,-62.6 -45.7466,-98.97333 4.3066,-15.73333 9.52,-31.17333 15.9733,-46.10666 11.6,-23.41334 25.7867,-45.45334 39.5467,-67.56 11.92,-21.84 -2.12,-50.94667 -27.6134,-50.66667 -26.6666,1.10667 -38.12,27.57334 -52.72,46.24 -8.52,12.05333 -16.92,24.13333 -24.5866,36.73333 -24,41 -36.56,87.73334 -45.4667,134.09333 -9.1867,57.98667 -2.2933,116.84 8.84,174.05333 1.16,7.01334 2.4933,13.98667 3.9067,20.92 -13.9067,2 -27.1067,7.72 -37.84,17.12 -41.2267,31.85333 -66.3334,89.12 -50.2134,140.32 10.68,33.68 45.76,73.64 77.16,90.14666 37.4134,17.54667 78.32,27.58667 118.7067,36.25334 13.0533,32.69333 24.7867,65.87999 34.36,99.78666 14.2133,41.25329 24.0933,80.73327 29.3733,124.89327 15.5334,94 7.0934,189.96 -10.12,283.1334 -11.8666,70.88 -33.3733,140.8666 -53.8933,209.88 -15.8667,54.3866 -35.6533,107.4266 -53.1867,161.2666 -12.4266,32.3334 -25.48,64.4534 -38.9866,96.4 -3.3867,4.0534 -5.0134,8.32 -5.24,12.4 -14.7867,34.5734 -30.2,68.8667 -46.1467,102.92 -4.48,-27.84 -11.88,-54.2 -25.52,-80.1733 -17.1867,-29.3467 -42.92,-56.2133 -73.6667,-71.28 -37.2533,-18.3467 -83.7333,-15.52 -120.0533,3.7867 -12.24,7.7333 -24.7467,16.4666 -31.8533,29.4266 -5.1467,6.1867 -3.6667,14.7067 5.4666,13.4 14.76,-7.2266 28.7067,-16.5333 44.7334,-21.2933 28.5066,-7.5467 59.4666,-8.52 87.5066,1.52 77.7067,28.2667 92.4267,106.3467 86.32,180.3333 -0.013,0.32 -0.053,0.6667 -0.08,0.9867 -5.3333,10.8666 -10.6933,21.7066 -16.1333,32.5066 -57.8267,111.4 -122.7467,218.8267 -185.12,327.7334 -53,91.6533 -100.84,186.36 -146.6,281.8533 -30.68,67.5867 -55.6533,137.7067 -89.6533,203.76 -31.6934,73.44 -66.0267,145.72 -103.3334,216.48 -9.6133,0.8933 -19.88,1.0267 -29.7733,1.2667 -37.2133,2.1466 -77.0667,-4.2934 -111.8,12.48 -44.0267,24.0666 -61.96,77.0933 -64.4267,124.6666 -2.5066,28.2934 -3.44,56.5734 -0.8266,84.8934 0.6,12.7333 -0.88,25.4666 -0.6134,38.2133 -0.3333,4.36 -0.44,11.2933 5.2934,11.6533 3.4133,0.1467 5.4266,-2.4933 6.7066,-5.4 1.0934,-0.84 1.6,-2.2266 1.3334,-3.5333 v 0 c 7.4933,-18.48 8.3333,-38.52 7.4666,-58.1867 -0.8533,-20.92 1.9067,-39.6533 3.8534,-61.24 2.3866,-28.28 7.1866,-57.72 23.8133,-81.44 -0.08,0.12 -0.1733,0.24 -0.2533,0.36 -0.067,0.093 -0.12,0.1867 -0.1867,0.28 10.7733,-16.7466 26.96,-31.84 47.4533,-34.9066 11.2667,-1.52 22.5334,-3.0134 33.8667,-3.8134 16.8533,-0.093 31.3867,1.9067 49.0933,1.7067 4.7467,0.1467 9.52,0.32 14.28,0.5467 -0.84,1.5333 -1.6533,3.08 -2.48,4.6266 -41.68,74.3734 -84.7333,148.5867 -141.3333,212.8267 -50.2,56.1333 -105,108.7733 -165.6267,153.5733 -48.8133,36.5333 -97.7866,73.0933 -151.1733,102.8 -0.52,0.2933 -1.0266,0.6 -1.5466,0.8933 -2.2934,-2.6533 -4.8134,-5.1066 -7.6267,-7.32 -21.8267,-15.6533 -52.0267,-15.3333 -76.1867,-5.16 -35.1066,12.36 -58.1066,40.6134 -82.12,67.7067 -8.9866,10.68 -18.7866,20.68 -28.5466,30.6267 -4.1467,3.1466 -7.8667,6.4133 -10.9334,10.2666 -7.5466,2.5867 -15.0933,5.1867 -22.6133,7.8134 -0.4267,-0.067 -0.8267,-0.1467 -1.2667,-0.2 -24,-4.1734 -47.76,-7.24 -71.6666,-12.4267 -19.44,-4.7867 -37.4534,-14.5867 -54.0934,-25.5333 -17.88,-11.1734 -35.44,-23.4267 -46.4266,-41.9334 -8.4,-16.4133 -16.8267,-33.7066 -16.1334,-52.5866 -0.3866,-4.64 0.053,-11.4667 -3.24,-15.8934 -8.3333,-8.2533 -13.9333,6.4 -15.0666,13.1867 -5.0934,20.64 -4.08,40.2533 3.3333,60.2 9.28,28.72 33.28,48.9733 58.3733,63.9867 22.3867,15.0533 47.0934,25.3466 72.7867,32.6266 -44.8133,10.7467 -90.4267,17.9067 -136.56,23.32 -10.3067,1.2134 -20.6133,2.48 -30.92,3.7467 -3.6533,-2.3333 -7.3467,-4.6267 -11.04,-6.9333 -30.5733,-18.32 -56.8267,-42.7067 -89.3467,-58 -54.12,-27.8134 -146.9333,-16.5867 -182.64,36.1733 -8.6266,12.6667 -15.0266,26.7733 -19.7066,41.36 -34.84,-2.3867 -69.4134,-7.4667 -103.7334,-14.08 -49.5333,-8.48 -97.4,-23.7067 -144.96,-39.64 -10.2133,-3.1333 -20.3333,-6.52 -30.4133,-10 6.08,-6.04 11.8667,-12.5067 16.9733,-18.88 26,-29.5067 45.32,-66.1067 47.5867,-105.8933 2.0533,-19.16 -2,-37.7734 -12.2133,-54.2267 -1.3734,-5.2267 -7.96,-6.3733 -11.2534,-2.1867 -2.6933,3.4534 -2.76,8.2934 -2.48,12.5067 11.1867,58.3733 -14.28,106.9733 -53.72,148.28 -3.4,3.9333 -7.4266,7.48 -11.6666,10.7333 -0.8667,-0.32 -1.7467,-0.6533 -2.6134,-0.9866 -1.76,-8.48 -4.48,-16.8134 -6.6933,-25.1867 -5.7067,-22.72 -10.9733,-46.5733 -24.96,-65.88 -18.2,-25.4 -43.6667,-45.84 -73.0933,-56.6667 -26.7734,-8.4 -57.64,-16.48 -84.1867,-3.0933 -7.44,3.6667 -21.1867,12.24 -19.04,21.8667 1.0533,2.3333 3.5067,3.7333 5.9333,3.12 10.1334,-4.2667 18.68,-10.7867 30.08,-12.3067 22.88,-2.8 45.92,5.0933 66.6934,14 22.76,11.52 41.6666,29.04 56.0533,50.6 9.32,15.6267 13.2533,33.72 17.6667,51.2133 0.88,3.76 2.0266,7.4534 3.0933,11.1867 -33.6933,-13.6933 -66.8667,-28.6667 -99.8133,-44.16 -84.4667,-43.44 -166.6267,-93.6267 -234.9467,-160.4533 0.6534,-2.8267 1.32,-5.6534 1.92,-8.5067 3.7867,-24.8 11.6,-50.36 7.9067,-75.68 -5.4,-34.7066 -37.2933,-60.36 -71.2,-64.6 -14.8533,-1.0133 -29.72,1.1067 -44.52,2.1867 -5.6267,0.8533 -11.28,1.92 -16.96,3.0133 -34.6,-37.52 -72.08,-72.44 -112.3467,-103.7466 -1.7066,-1.48 -3.4933,-2.8534 -5.2133,-4.3067 0.3067,-4.7333 0.68,-9.4667 1.2,-14.2133 0.093,-3.7334 0.88,-10.0267 -3.48,-11.7734 -4.12,-1.6533 -6.8667,1.9334 -8.2,5.2934 -1.3067,3.04 -2.4,6.1333 -3.3867,9.2533 -19.76,-15.5467 -40.5866,-29.68 -62.32,-42.4133 -46.4133,-27.04 -99.2,-41.5734 -151.1733,-53.8267 -80.7293,-13.4267 -164.0413,-12.32 -243.8147,6.68 -37.2866,7.7333 -75.1293,12.9733 -111.848,23.36 -10.9933,3.1733 -21.8933,6.64 -32.748,10.2533 -4.6253,-2.6933 -9.352,-5.2 -14.37062,-7.1066 -1.50667,-1.5334 -4.47467,-0.1067 -3.99734,2.0933 0.0693,0.88 0.50934,1.7467 0.948,2.5067 1.8,2.3066 3.624,4.44 5.45467,6.5466 -38.17733,13.1867 -75.676,28.4134 -113.188,43.3067 -56.168,21.4133 -113.17466,42.36 -163.02266,76.68 -47.396,31.96 -92.27067,67.6 -137.03866,103.1066 -29.16534,24.1467 -59.75867,46.6267 -86.65734,73.4 -54.56933,49.9467 -92.92666,114.7334 -136.34799,173.52 0.0347,0.013 0.0707,0.013 0.10666,0.027 -1.87866,1.08 -3.03733,3.36 -1.9,5.68 3.068,6.2533 11.172,2.72 14.96534,-0.68 33.76666,-33.68 61.18133,-73.1333 92.60799,-109 30.33067,-33.9333 66.53334,-67.44 103.364,-95.72 48.612,-39.6667 97.47467,-79 148.056,-116.12 30.924,-23.08 64.676,-40.84 99.648,-56.2 -7.88667,11.1734 -14.78267,23.04 -21.864,34.76 -17.72934,26.2667 -32.00134,54.96 -45.56534,83.6 -7.07333,17.0933 -20.24933,35.0667 -18.89599,54.4 1.11733,3.4933 5.79333,1.5467 3.99866,-2.0667 22.10667,-31.4666 39.41067,-65.2399 60.06533,-98.3866 12.54267,-19.5867 26.70667,-35.8667 41.38134,-54.2533 11.244,-12.88 20.53466,-27.6267 33.05999,-39.3067 31.48134,-12.04 63.32,-23.2933 94.44267,-35.72 18.752,-6.76 37.54129,-13.48 56.52929,-19.5333 27.484,19.1733 58.9054,24.0533 96.84,28.36 38.756,2.48 74.6507,-17.4534 105.0014,-39.6 14.0573,-9.4667 27.7026,-19.5467 40.312,-30.88 -0.1894,0.1733 -0.38,0.3466 -0.5694,0.52 -0.1893,0.1733 -0.3786,0.3466 -0.5693,0.52 0.8533,-0.8267 1.7773,-1.6267 2.728,-2.4267 12.7867,-0.5067 25.604,-0.56 38.4453,-0.08 27.8387,2.2667 55.896,3.24 83.4827,7.88 42.2267,9.36 84,21.64 123.72,38.8267 24.4933,12.6666 47.6933,27.04 69.9333,43.4666 8.32,6.7067 16.5867,13.4934 24.8534,20.2667 -2,17.3867 -1.4134,35.1333 5,51.5867 10.96,27.0266 29.6533,54.7733 59.8,61.5866 19.0666,5.6667 38.0533,4.4267 57.0666,1.3734 12.24,14.1333 23.96,28.7333 35.5734,43.4133 -1.7334,0.44 -3.4,0.7866 -5,0.96 -73.48,11.6 -115.4667,-16.5867 -169.3067,-61.92 -23.4933,-22.6 -47.32,-45.0267 -75.3733,-62.08 -18.5734,-10.1867 -38.1734,-19.0533 -58.3334,-25.6267 -18.4266,-5.3333 -37.8666,-1.3466 -56.0133,3.36 -9.76,2.7467 -20.44,4.1734 -28.0933,11.48 -9.5734,6.56 -7.68,18.5867 4.4933,18.56 7.1733,-0.7733 14.2533,-2.64 21.56,-2.8533 13.72,-2.2133 27.52,-4.9067 41.48,-4.6533 20.36,3.5333 38.76,14.52 57.6667,22.48 12.3333,6.7466 24.3066,14.2133 36.1066,21.8533 16.5467,11.6 30.6534,26.2 46.4134,38.8 44.92,35.0266 92.8666,76.2133 153.4533,73.5466 10.3467,0.5334 35.2933,-1.16 50.9467,-8.6266 23.5466,29.5866 47.7733,58.5466 76.3866,83.6133 89.6,82.1867 197.4,139.56 307.96,189.36 48.04,22.52 98.4133,39.32 148.6667,56.1333 79.5066,27.32 163.3333,42.76 247.28,46.68 74.7466,0.053 149.7466,-0.8933 224.32,-7 64.92,-7.6666 130.2133,-13.4533 194.5866,-25 41.2267,-7.8533 81.9067,-18.7066 121.4934,-32.6 41.0666,-14.2933 82.8933,-26.6 122.28,-45.28 26.6933,-12.84 52.8,-26.88 78.5866,-41.52 0.2,1.4667 0.4134,2.9467 0.6,4.3867 0.5067,20.5067 -7.1866,40.1333 -13.2266,59.44 -9.8134,31.6267 -29.5467,57.0933 -48.1867,84.0667 -3.6533,5.1333 -7.0667,11.0266 -11.96,15.32 -5.5733,3.84 -9.0133,12.2266 -0.4133,15.52 18.8533,2.0266 32.12,-23.9067 43,-36.44 17.2,-21.08 30.5866,-44.72 39.24,-70.5467 7.0933,-20.3867 14.5866,-41.2133 15.6933,-62.92 -0.24,-7.04 -0.9067,-14.4533 -2.1333,-21.84 20.0133,-11.6933 39.8799,-23.6533 59.6933,-35.6 50.56,-34.1733 99.9466,-70.2933 147.3333,-108.7333 45.84,-40.4667 90.72,-82.2934 130.8267,-128.52 39.0133,-46.3467 73.7733,-95.8 105.6133,-147.1733 16.48,-11.88 33.08,-23.84 49.6267,-35.56 31.1866,-20.2134 67.16,-36.1867 104.6266,-41.8 22.8667,-3.4267 51.2134,-6.5734 74.28,1.0133 37.2667,11.7733 51.5734,46.48 63.3734,80.4933 -2.68,5.08 3.04,11.2134 8.36,8.96 4.36,-1.5733 5.6533,-7.72 2.2666,-10.8666 -2.7733,-36.56 -12.48,-77.6134 -46.52,-97.3067 -37.5066,-25.6133 -86.1066,-14.8533 -127.5733,-6.4667 -30.4267,5.9467 -59.64,17.0534 -87.2933,31.2934 37.32,-67.0267 70.84,-136.3067 103.0533,-205.5867 14.6667,-33.8533 30.8267,-66.92 46.9733,-100.08 20.8134,-46.4 40.8534,-93.1067 62.24,-139.2533 9.44,-18.8667 18.9867,-37.6934 28.5867,-56.48 8.68,-3.92 16.9733,-9.4 25.7867,-13.2 29.28,-12.88 57.9333,-27.44 88.7066,-36.9467 23.8267,-8.2267 49.1734,-9.5333 74.1334,-7.7867 39.32,2.7734 77.6933,16.6934 108.64,41.28 14.48,14.52 26.12,31.6534 37.6933,48.52 15.6267,23.88 20.4933,52.3334 31.8933,78.0267 3.2534,7.1067 14.36,10.7067 16.8,1.2 -1.7866,-21.2933 -3.2933,-43.1733 -9.88,-63.7333 -5.88,-20.1867 -17.1866,-38.0267 -29.68,-54.7067 -14.1333,-20.9467 -31.8133,-39.1867 -54.48,-50.8 -41.48,-26.6533 -92.0666,-33.8 -140.56,-31.4 -41.6933,2.9467 -81.6266,16.3733 -119.84,33.1067 16.24,-31.04 32.68,-61.9734 49.4534,-92.7334 32.4666,-64.1466 72.1733,-124.24 106.52,-187.3733 60.5333,-107.6133 119.8933,-216.2933 169.12,-329.6666 4.3466,-9.6934 8.5466,-19.4667 12.76,-29.2267 2.76,5.8667 4.8,12.0667 5.96,18.4267 4.7733,32.8666 -0.053,67.7199 -14.1734,97.8133 -14.4,31.7733 -47.2666,48.6133 -65.4266,77.4266 -10.1334,17.1467 -17.9867,38.2 -14.6534,57.9334 -2.4933,2.4933 -1.8933,7.56 2.2267,8.6533 1.0667,3.0133 2.4267,5.9733 4.16,8.8533 1.8267,2.2134 4.3333,4.68 7.4133,4.2667 3.7467,-0.5067 3.04,-6.1733 -0.7333,-5.64 -1.3733,-2.76 -2.2667,-5.5867 -2.84,-8.44 0.9467,-0.4 1.88,-0.8133 2.7733,-1.24 5.3334,-3.5467 1.6267,-9.7733 -3.3733,-9.2267 1.1067,-14.1333 9.1467,-28.3466 16.9467,-39.6133 8.8133,-13.7067 21.6,-24.0667 34.3733,-33.8933 13,-10.8534 24.92,-23.44 34.0267,-37.76 22.84,-38.8267 31.1466,-87.0533 23.7733,-131.4133 -3.1333,-13.9467 -9.12,-27.1067 -16.2933,-39.56 5.4133,-13.0134 10.76,-26.0667 16,-39.1467 38.0133,-21.5867 84,-26.2267 127.04,-28.8267 42.1066,0.6267 88.0666,8.0267 121.3999,35.5734 14.2667,13.3866 19.72,35.6533 38.28,44.5466 14.44,5.3334 14.6,-9.1866 10.7334,-18.6133"
         style="fill:#99764b;fill-opacity:1;fill-rule:nonzero;stroke:none;stroke-width:0.133333" />
      <path
         id="path4"
         d="m 4681.8265,680.92607 c 42.7734,38.54667 107.28,108.26666 162.4667,121.76 6.6533,1.38666 10.7467,-4.78667 13.8667,-9.66667 11.6533,-18.2 10.4666,-40.84 15.3066,-61.28 4.4534,-18.22666 1.92,-37.22666 -0.4533,-55.56 24.32,6.82667 50.16,2 73.6933,-5.70666 47.2134,-11.89334 91.3067,-31.89334 133.56,-55.93334 17.3067,-9.26666 34.9334,-20.07999 51.4,-30.97333 6.3467,-3.82666 4.8267,-11.61333 3.88,-17.82666 -6.7733,-36.92 -27.1733,-69.61334 -52.1866,-97.02667 -15.1067,-17.06666 -34.8934,-28.69333 -52.44,-42.93333 -11.6,-9.49333 -22.36,-21.10667 -34.8267,-29.84 -7.8133,-4.8 -15.3067,-8.96 -22.8267,-14.56 13.7867,-14.34667 25.7334,-30.81333 29.2,-50.86666 3.8667,-13.38667 4.3467,-27.29334 4.4134,-41.17334 0.027,-4.50666 1.64,-9.29333 -0.84,-13.44 -2.16,-3.82666 -7.16,-5.41333 -11.2934,-6.44 -13.3466,-2.44 -26.88,-3.50666 -40.36,-4.97333 -63.16,-13.44 -128.28,-6.04 -190.7866,7.44 -21.8134,6.53333 -43.7734,14.88 -62.88,27.38667 -25.3334,19.57333 -49.5733,43.19999 -58.96,74.69333 -9.2267,32.30666 0.7867,66.82666 12.4267,97.39999 -6.6534,8.68 -16.0134,14.26667 -23.4,22.18667 -10.36,12.52 -20.3467,26.46667 -24.0534,42.52 -7.2533,57.89333 35.24,107.86666 75.0933,144.81333"
         style="fill:#5e9445;fill-opacity:1;fill-rule:nonzero;stroke:none;stroke-width:0.133333" />
      <path
         id="path5"
         d="m 4388.7466,1211.526 c 1.0666,5.28 2.4133,12.6267 9.1733,12.56 16.2133,-1.4133 31.16,-9.4266 46.3867,-14.7466 11.3333,-4.4667 23.1333,-7.6934 34.2,-12.84 16.3466,-7.9067 29.5866,-20.9334 41.8933,-34.2 11.8133,8.4666 20.5867,21.4533 33.4533,28.8133 18.92,9.8667 38.5334,18.4533 57.44,28.4133 27.84,12.72 54.4267,28.1867 82.3067,40.7467 17.12,6 34.28,12.3467 51.8133,17.0267 12.5733,2.76 25.3733,4.2133 37.7467,7.9333 8.2533,1.6267 10.4266,-9.12 13.5066,-14.6933 4.56,-9.7734 8.3467,-20.2 10.4934,-30.84 6.84,-33.5467 11.64,-68.2134 9.32,-102.52 -2.3867,-22.4534 -0.8,-45.0667 -3.1867,-67.5334 13.6,-0.8133 27.4,-0.4133 40.8933,-2.3866 20.6267,-3.88 39.92,-13.1734 58.44,-22.76 10.7067,-5.8667 20.72,-12.92 30.96,-19.5867 7.5734,-5.3867 17.3867,-8.56 22.6134,-16.6533 4.1333,-8.65338 -5.4134,-16.13338 -9.88,-22.64 -10.04,-13.90667 -22.7867,-25.68 -31.64,-40.54667 -20.3467,-34.45333 -43.1467,-67.53333 -72.8134,-94.73333 -17.9333,-16.58667 -39.2933,-28.85333 -60.8133,-40.13333 -16.84,-8.10667 -33.64,-17.06667 -51.9333,-21.42667 -39.64,-7.05333 -81.4533,7.2 -113.92,29.8 -11.36,8.62667 -20.4667,20.22667 -29.7867,31.21333 -10.6133,11.69334 -17.12,27.29333 -23.96,41.50667 -80.8133,-38.76 -146.1066,9.46666 -174.2933,86.82666 -10.52,27.45334 -8.1867,56.54664 -7.9067,85.29334 -1.6933,49.1866 -8.96,99.24 -0.5066,148.1066"
         style="fill:#5e9445;fill-opacity:1;fill-rule:nonzero;stroke:none;stroke-width:0.133333" />
      <path
         id="path6"
         d="m 4379.9066,1690.6594 c 27.3466,6.1066 56.1333,10.16 84.0133,5.9466 -2.4,18.7467 2.28,37.0534 7.3867,54.9334 3.9466,15.12 7.6533,30.64 15.5066,44.24 9.64,17.64 25.7334,31.3866 39.7467,45.6133 14.9733,14.4933 30.2667,29.5733 49.12,38.8133 7.1467,2.9467 11.24,-4.4133 14.2133,-9.6533 2.5334,-4.08 5.1867,-8.44 7.9067,-12.92 6.7467,-11.1067 14.4533,-22.1333 22.2,-32.68 17.2133,-24.5867 35.4267,-48.5333 52.3066,-73.32 10.2534,-15.2933 14.52,-34.56 17.64,-52.68 31.6667,0.64 62.64,-8.4133 92.4667,-18.4667 6.5067,-3.0133 13.2933,-5.2933 19.8933,-8.0533 4.8,-2.4933 3.36,-7.8533 1.24,-11.7067 -8.88,-19.5333 -8.3866,-40.8933 -10.3066,-61.7866 -3.3067,-20.56 -4.8667,-41.3867 -8.9334,-61.8134 -3.2266,-14.8666 -10.6133,-28.2133 -17.4133,-41.6533 -9.76,-20.3867 -20.76,-41.0933 -37.96,-56.1867 -10.3333,-8.6133 -23.44,-12.2133 -36.0933,-16.04 -28.28,-10.0266 -59,0.8534 -83.6267,15.6534 -8.44,-9.8 -20.5066,-15.04 -32,-20.3467 -9.0266,-4.68 -18.8533,-7.6933 -29.0666,-7.9733 -30.5867,-0.6267 -62.16,4.3333 -90.5334,15.84 -40.76,20.9066 -65.36,62.32 -88.28,100.4666 -16.3466,27.1467 -20.6,58.6667 -29.9333,88.4134 -3.7867,12.1066 -6.4267,24.5333 -10.48,36.5866 -1.7733,6.24 -7.7733,13.5734 -3.6533,19.88 15.7733,11.08 36.24,14 54.64,18.8934"
         style="fill:#5e9445;fill-opacity:1;fill-rule:nonzero;stroke:none;stroke-width:0.133333" />
      <path
         id="path7"
         d="m 5164.2665,2054.046 c -4.0133,-23.08 -12.4666,-45.68 -21.5333,-67.2933 -5.2,-15.0933 -9.7067,-30.48 -17.4133,-44.56 -22.1067,-41.8133 -61.0534,-69.4933 -99.3334,-95.6 18.8267,-7.72 31.24,-23.32 45.5734,-37.1733 12.9466,-13.84 27.8266,-27.0534 36.24,-44.2934 4.1466,-12.2266 -14.6667,-22.44 -22.96,-28.84 -34.7867,-22.6933 -77.2267,-30 -117.9067,-34.2133 -29.64,-2.2667 -60.08,-2.96 -89.3333,2.9333 -15.0667,3.8134 -29.2534,10.88 -43.2934,17.4667 -13.44,6.4667 -26.44,13.96 -37.2,24.4667 -20.28,20.84 -35.1733,46.1066 -48.0933,71.9733 -13.28,20.32 -14.84,44.4667 -12.7733,68.0133 -39.72,22.6 -59.5334,71.2667 -52.4534,115.6933 8.6267,44.4667 34.5067,82.76 59.3467,119.7734 7.4533,10.76 16.5733,19.9866 26.56,28.4666 15.7733,13.5067 30.6533,28.5734 49.3467,38.04 9.56,4.0667 15.88,14.2934 25.7333,17.3067 2.4133,0.1333 4.36,-1.5333 6.0267,-3.0933 6.7066,-6.4 11.9466,-14.12 17.2133,-21.68 8.76,-13.0667 18.64,-25.52 26.2133,-39.32 7.6,-15.0267 11.8134,-31.2134 18.68,-46.5734 28.56,2.5467 57.4934,6.6534 86.2934,4.2 33.5333,-2.6133 66.2266,-11.72 98.7066,-20.08 20.4267,-3.7733 40.5334,-8.7466 60.5734,-14.2133 5.7866,-0.9067 7,-6.4267 5.7866,-11.4"
         style="fill:#5e9445;fill-opacity:1;fill-rule:nonzero;stroke:none;stroke-width:0.133333" />
      <path
         id="path8"
         d="m 4107.1999,2189.206 c -20.24,21.2 -41.0667,41.7467 -59.6933,64.44 -15.8534,19.64 -28.2134,41.6533 -40.0667,63.8667 -10.4267,17.2666 -19.6667,35.1333 -28.72,53.1733 -3.6,4.72 -3.8133,9.7867 0.08,14.4267 20.3867,21.4133 51.8533,27.8533 79.5733,34.7466 26.7734,6.7334 52.24,6.2 79.4,7.5467 5.1067,12.9333 5.6934,27.4533 12.8,39.6933 10.0667,19.0134 19.44,38.1734 33.2134,54.9867 20.3866,30.6933 44.6133,58.28 72.6666,82.1733 23.8267,20.9867 49.5467,39.4667 77.2534,54.9467 8.24,5.28 13.6933,-6.8667 18.4933,-11.8667 7.32,-9.4133 14.6267,-18.8933 21.6133,-28.56 38.8667,-56.44 78.0267,-126.2133 69.0934,-196.9866 18.52,3.84 37.28,7 56.1333,9.0266 27.0267,2.2267 54.2,-1.64 80.9067,-5.4933 20.48,-2.56 39.6666,-9.7867 59.1866,-16.0533 11.0934,-3.4134 16.0667,-6.8267 13.3067,-19.1067 -11.5467,-27.24 -18.3733,-55.5333 -26.7067,-83.92 -8.8266,-26.2 -23.24,-49.88 -39.12,-72.3467 -31.1066,-45.08 -76.4133,-84.0133 -131.12,-95.6666 -19.4533,-2.6934 -38.9333,-6 -58.52,-7.3867 -10.1866,-0.7067 -19.92,2.5333 -29.64,5.04 -9.4,2.2267 -19.2133,3.3467 -27.7066,8.2933 -15.4267,-36.08 -52.36,-34.6533 -85.7334,-32.9866 -28.8933,-0.5467 -56.1733,9.8133 -79.4266,26.5733 -23.8267,15.24 -47.4134,31.1067 -67.2667,51.44"
         style="fill:#5e9445;fill-opacity:1;fill-rule:nonzero;stroke:none;stroke-width:0.133333" />
      <path
         id="path9"
         d="m 3579.6666,2092.1393 c 15.7066,4.8267 32.64,4.1067 48.92,5.0667 45.3333,1.3867 90.3466,-3.76 135.1733,-9.7333 37.9067,-2.2534 75.1733,-10.96 110.0267,-26.1734 12.1866,-5.2933 23.4266,-13.0266 36.1066,-17 2.24,0.44 3.4934,2.3734 5.1734,4.12 5.44,7.76 8.84,16.8934 12.32,25.7067 11.6533,35.88 26.88,70.4133 48.7066,101.32 3.9867,7.2133 9.7467,14.9067 13.6134,22.4 0.8666,1.9333 2.2133,3.7333 4.44,4.12 2.2266,0.4 4.28,-0.5333 6.1866,-1.6 8.5467,-5.08 16.4134,-11.2267 24.1467,-17.4267 15.1733,-12.36 29.8667,-25.32 43.5733,-39.28 33.8534,-34.0933 66.4934,-71.0666 88.44,-114.4133 22.3867,-44.4 42.76,-101.6133 12.2667,-147.0266 -15.7733,-20.9467 -34.3467,-40.04 -54.28,-57.0667 -2.0533,-23.8 -10.72,-46.4133 -20,-68.2133 -6.8133,-18.8267 -16.5733,-36.52 -29.5733,-52.04 -12.0267,-13.84 -26.3734,-25.52 -38.7067,-39.08 -7.6933,-9.8 -18.0267,-16.64 -28.5467,-23.0534 -14.9066,-8.9466 -30.8666,-16.76 -48.2933,-19 -17.68,-2.2266 -35.28,-5.7333 -53.0533,-7.0933 -18.6267,-0.32 -37.2134,2.2133 -55.7334,4.12 -18.8266,1.8267 -37.6666,4.7467 -55.16,12.4133 -17.92,6.44 -35.4133,14.32 -50.1466,26.6667 -6.5734,6.24 -43.56,30.56 -33.5467,39.7867 5.4533,4.3866 11.68,7.6533 17.3067,11.8 8.3866,6.4933 15.12,14.4933 23.6133,20.9733 23.2133,17.52 49.2667,30.84 77.0933,39.1867 -0.6533,2.8533 -3.3466,4.2933 -5.6266,5.7466 -6.3734,3.8667 -12.9867,7.3734 -19.4,11.2267 -21.92,13.4133 -43.4134,27.8533 -62.9734,44.6133 -23.8133,21.0534 -46.8,43.2267 -68.32,66.6534 -31.84,38.1866 -55.5333,82.4133 -72.6266,129.0399 -6.3734,16.5467 -12.2534,33.5867 -14.5067,51.28 -0.4933,4.1334 -0.9733,9.84 3.3867,11.96"
         style="fill:#5e9445;fill-opacity:1;fill-rule:nonzero;stroke:none;stroke-width:0.133333" />
      <path
         id="path10"
         d="m 4787.8132,2756.246 c -25.9067,-38.3867 -64.0267,-68.8 -106.6667,-87.0933 -30.2666,-15.68 -62.6533,-29.08 -96.9999,-31.84 -33.9067,-4.4134 -67.8667,10.0666 -97.7734,24.7466 -8.8533,5.3334 -17.36,12.48 -25.24,19.32 -13.08,9.3334 -24.64,21.0934 -32.56,35.5734 -53.76,-16.7067 -93.1733,21.7466 -122.52,62.08 -19.88,28.2266 -28.96,62.7733 -33.04,96.72 -2.2,33.1466 0.9867,67.24 8.32,99.72 2.6667,11.0933 5.0134,22.28 6.7334,33.56 2.3333,8.0266 -0.5067,23.68 8.76,27.2266 20.2133,0.92 77.0266,-35.5466 88.7866,-52.4533 16.9334,15.5467 34.08,30.9867 51.96,45.4133 18.4667,11.88 35.36,25.96 53.1067,39.1734 17.5067,13.8933 38.2933,22.7733 58.16,32.76 33.7467,17.96 69.4533,31.76 106.3867,42 5.8933,2.0933 10.1333,1.64 12.8933,-4.36 5.1066,-10.3467 9.3733,-21.1067 14.44,-31.4667 5.2933,-10.5467 9.4266,-20.6533 13.16,-32.12 6.64,-18.6533 13.48,-37.4533 15.4666,-57.2667 4.8667,-50.4933 2.96,-102.7066 -10.7733,-151.84 54.2,5.6534 84.3467,-15.56 123.5333,-48.9866 6.32,-7.0934 -3.5866,-14.88 -6.6533,-21.3467 -9.0133,-13.76 -20.36,-25.76 -29.48,-39.52"
         style="fill:#5e9445;fill-opacity:1;fill-rule:nonzero;stroke:none;stroke-width:0.133333" />
      <path
         id="path11"
         d="m 3741.6399,2968.9527 c 1.4667,10.2533 4.0667,20.8133 5.9467,31.1333 1.32,6.3867 2.0266,15.88 10.4133,16.1733 19.12,1.36 37.88,-4.1066 56.6667,-6.88 31.9733,-5.0266 63.84,-12.8133 93.52,-25.9733 21.6266,-10.8933 43.8,-21.7733 63.3466,-36.24 12.32,-9.9733 22.08,-21.5067 33.1334,-33.1333 0.04,-0.04 0.053,-0.053 0.08,-0.093 8.1066,-8.1333 16.1333,-16.64 24.16,-25.5466 0.92,-0.9734 2.8266,-2.96 4.5066,-3.3467 8.8267,17.4667 23.0534,28.9867 40.6667,37.7067 25.0533,13 51.8,23.0666 78.7867,31.32 11.04,2.2 19.72,7.9333 25.48,-5.8267 14.64,-30.9733 17.5333,-66.1733 17.9466,-100.0533 0.4267,-21.5867 1.92,-43.6934 -3.84,-64.7334 -9.8,-34.2133 -28.56,-66.3733 -54.52,-90.9333 -18.6133,-16.76 -41.7866,-28.0533 -64.64,-37.84 -18.8533,-6.68 -38.5866,-10.1733 -56.96,-18.2933 -7.9733,-3.1334 -16.32,-5.5067 -23.7333,-9.9734 0.013,-0.053 0.013,-0.093 0.013,-0.1466 0.093,-1.3067 -0.4933,-2.6134 -1.4533,-3.52 -4.7733,-23.56 -12.84,-47.72 -29.68,-65.4667 -27.24,-26.6133 -68.1067,-36.1333 -105.2667,-32.7733 -60.5866,8.3466 -112.8133,43.64 -164.88,73.3333 -22,7.88 -2.64,31.4267 6.3734,42.5733 10.3066,12.8534 20.6266,25.7867 33.32,36.4667 12.8,10.2533 25.72,20.68 40.0666,28.7867 8.52,4.3066 18.0267,5.8933 26.96,9.16 -23.8533,35.8266 -38.6933,76.2533 -48.1333,118.12 -13.68,44 -13.9333,90.5066 -8.28,136"
         style="fill:#5e9445;fill-opacity:1;fill-rule:nonzero;stroke:none;stroke-width:0.133333" />
      <path
         id="path12"
         d="m 4382.6132,3287.246 c -0.6533,-2.28 -1.7466,-5 -3.4133,-7.4533 -1.2667,-1.8267 -2.6667,-3.5467 -3.9733,-5.3467 -1.1867,-1.6 -2.3467,-3.24 -3.56,-4.8 -1.5467,-1.96 -3.0934,-3.88 -4.6667,-5.8 -2.6,-3.3067 -5.32,-7.2267 -8.3067,-10.96 -3.2533,-4.08 -6.72,-7.9867 -10.0666,-12 -3.28,-3.9333 -6.48,-7.9333 -9.7467,-11.88 -6.8133,-8.2267 -14.48,-15.6667 -22.0667,-23.16 -3.7866,-3.76 -7.7066,-7.4 -11.72,-10.9467 -3.8533,-3.4133 -7.9733,-6.5333 -11.9866,-9.7466 -3.92,-3.1334 -7.8667,-6.2534 -11.88,-9.2534 -4.16,-3.12 -8.3334,-6.2933 -12.72,-9.1066 -8.9334,-5.6667 -18.2934,-10.64 -27.9734,-14.8934 -9.72,-4.28 -19.72,-8 -30.0133,-10.6533 -5.2133,-1.3733 -11,-2.8133 -16.8667,-3.88 -5.9066,-1.08 -11.84,-2.0933 -17.84,-2.4133 -5.2,-0.28 -10.4,-0.32 -15.6133,0.08 -5.5867,0.4133 -11.1733,0.8933 -16.76,1.4666 -5.0667,0.4934 -10.24,1.04 -15.1867,2.2934 -5.3733,1.36 -10.5466,3.1866 -15.56,5.5733 -4.7333,2.24 -9.2666,4.9067 -13.64,7.7733 -4.24,2.7867 -8.52,5.56 -12.5733,8.6 -4.1733,3.1334 -8.1867,6.4134 -12.12,9.8134 -2.8933,2.52 -5.7467,5.0533 -8.68,7.52 -0.5867,-0.7334 -1.3733,-1.2934 -2.2,-1.7467 -0.8267,-0.4267 -1.6533,-0.8933 -2.5333,-1.2267 -2.1067,-0.7733 -4.28,-0.9066 -6.5067,-0.9466 -2.0267,-0.027 -4.0667,0.04 -6.12,0.2266 -3.9733,0.3467 -7.96,1 -11.88,1.7734 -3.7867,0.7466 -7.5867,1.48 -11.2933,2.48 -5.1467,1.4 -10.32,2.8266 -15.2667,4.8266 -2.8,1.12 -5.56,2.2934 -8.2933,3.5467 -2.52,1.1333 -4.9867,2.3867 -7.4534,3.6533 -1.1333,0.5867 -2.2133,1.24 -3.3066,1.8534 -1,0.5733 -2,1.1066 -2.9867,1.7066 -2.3067,1.4534 -4.6533,2.8667 -6.9333,4.4 -4.3067,2.88 -8.5334,5.84 -12.5734,9.0534 -0.093,0.08 -0.2,0.16 -0.3066,0.24 -0.04,0.04 -0.067,0.067 -0.1067,0.093 -0.2533,0.2 -0.5333,0.44 -0.8,0.6533 -0.08,0.053 -0.5867,0.4667 -1.1067,0.88 -0.52,0.4267 -1.0533,0.84 -1.5733,1.2667 l -0.52,0.4 c -1.1333,0.8933 -2.68,2.2267 -4.1867,3.5467 -1.36,1.2266 -2.76,2.44 -4.1066,3.6933 -2.9067,2.76 -5.9067,5.48 -8.6534,8.4133 l -0.067,0.093 c -0.053,0.053 -0.1067,0.093 -0.16,0.1466 -1.1867,1.2267 -2.4267,2.5334 -3.68,3.8534 -0.04,0.027 -0.1467,0.1466 -0.2534,0.2533 -0.027,0.04 -0.04,0.053 -0.08,0.093 -1.8133,1.88 -3.5733,3.88 -5.24,5.9067 -2.0533,2.48 -4.12,4.9733 -6.1066,7.52 -3.4134,4.3733 -6.6667,8.84 -9.7867,13.4533 -1.4533,2.1334 -2.7867,4.3467 -4.16,6.5334 -0.6533,1.0533 -1.2267,2.1333 -1.84,3.2 -0.6933,1.1866 -1.4,2.36 -2.04,3.5733 -2.4533,4.64 -4.8267,9.2933 -6.8667,14.12 -2.12,5.0133 -4.0266,10.1067 -5.5866,15.3067 -3.12,10.4533 -5.56,21.08 -7.68,31.7599 -0.9734,4.9067 -1.8667,9.8267 -2.64,14.76 -0.8267,5.1734 -1.6934,10.3334 -2.32,15.52 0,0 0,0 -0.013,0.013 -0.013,0.2 -0.027,0.36 -0.053,0.5333 -0.1467,1.2667 -0.3467,2.6933 -0.4933,4.12 -0.04,0.1733 -0.053,0.3733 -0.067,0.56 -0.2133,1.76 -0.3333,3.52 -0.4933,5.2533 -0.4934,5.1734 -0.6267,10.4 -0.7867,15.5734 -0.16,5.36 -0.1067,10.72 0.053,16.0666 0.1467,5.04 0.44,10.0934 0.8534,15.12 0.4266,5.2934 0.8533,10.6134 1.64,15.8534 0,0 0,0.013 0,0.027 0.027,0.053 0.027,0.1067 0.04,0.16 0.6533,4.7734 1.4933,9.6134 2.4266,14.4267 0.88,4.56 1.8267,9.1067 3.0667,13.5733 1.3467,4.88 2.68,9.7867 4.84,14.4 2.0133,4.2934 4.36,8.44 6.32,12.7734 l 0.067,0.1733 c 0.027,0 0.04,0.067 0.067,0.16 0,0 0.04,0.08 0.08,0.1467 0.7734,1.8666 1.4134,3.8 2.4134,5.56 0.92,1.6266 2.32,2.9466 4.0666,3.6666 1.2,0.52 2.5467,0.7467 3.8667,0.8934 4.4267,0.52 8.6667,-0.4134 12.8933,-1.64 8.2,-2.3867 16.12,-5.8 23.9334,-9.2667 0.36,-0.1733 1.2666,-0.5733 2.1733,-0.9733 2.7333,-1.1867 6.04,-2.5467 9.36,-3.88 4.9333,-1.96 10.0267,-3.9734 14.4267,-7 4.28,-2.9467 8.1866,-6.2667 11.9333,-9.8534 3.48,-3.3733 6.7867,-6.88 10.3467,-10.1466 1.3733,-1.2667 2.8266,-2.4934 4.2,-3.8134 0.04,0.1067 0.093,0.2134 0.1466,0.32 0.7734,1.7867 1.4,3.64 2.1467,5.4134 0.9333,2.1866 2.0533,4.3066 3.3867,6.2666 5.8133,8.6667 14.2266,15.16 22.24,21.6667 7.96,6.44 16.0533,12.7333 24.1733,19 8.1867,6.32 16.6533,12.3067 25.4267,17.7733 4.64,2.88 9.3333,5.6534 13.9733,8.4934 4.48,2.7466 8.9067,5.52 13.48,8.0933 0.5067,0.2933 0.5333,0.3067 0.5733,0.3333 0.08,0.04 0.1867,0.093 0.2934,0.1467 0.1866,0.12 0.6,0.3467 1,0.5733 9.8266,5.5734 20.3466,9.9067 30.6666,14.6 9.6534,4.3867 19.2267,9.0534 29.32,12.3467 9.72,3.1733 19.68,5.6267 29.3867,8.8933 4.6933,1.5734 9.3467,3.24 13.96,5.0934 4.4133,1.76 8.8,3.52 13.3867,4.7866 2.2266,0.6134 4.4666,1.1467 6.7466,1.5734 1.7867,0.3466 3.6,0.6933 5.4134,0.8133 0.3466,0.027 0.6933,0.053 1.04,0.053 0.5466,0 1.0933,-0.053 1.6533,-0.16 1.2,-0.24 2.3067,-0.96 3.2133,-1.7733 0.96,-0.8533 1.8134,-1.8 2.5734,-2.8133 1.0133,-1.4134 1.8533,-2.96 2.8133,-4.4267 1.2533,-1.9333 2.5333,-3.88 3.72,-5.8667 2.5733,-4.2533 4.64,-8.6533 6.4,-13.2933 1.7067,-4.5067 3.2933,-9.0667 4.96,-13.5867 1.7333,-4.6266 3.5867,-9.1866 5.3733,-13.8 0.88,-2.1466 1.8267,-4.8933 2.8267,-7.6 0.84,-2.2933 1.64,-4.64 2.2933,-6.9866 0.8,-2.8534 1.5334,-5.7067 2.1334,-8.6 0.5466,-2.6134 0.8666,-5.3067 1.1866,-7.96 v -0.053 c 0.027,-0.04 0.027,-0.1733 0.04,-0.3066 0.013,-0.053 0.013,-0.12 0.027,-0.2 0.053,-0.4667 0.12,-1 0.1733,-1.5334 0,0 0.027,-0.067 0.027,-0.1333 0,-0.053 0,-0.093 0.013,-0.12 0.013,-0.1333 0.04,-0.3067 0.053,-0.48 0.9333,-7.76 1.48,-15.6667 1.9866,-23.5733 0.4534,-7.6267 0.8534,-15.2934 0.7467,-22.9334 0,-0.3733 -0.013,-1 -0.013,-1.6 -0.053,-3.8533 -0.36,-8.2933 -0.6534,-12.7333 -0.1333,-2.0667 -0.28,-4.12 -0.4,-6.1733 -0.1066,-2.0134 -0.12,-4.0134 -0.1866,-6.0134 0.013,-5.0266 0.28,-10.0133 0.5066,-15.0266 0.2134,-5.1467 0.3067,-10.28 0.093,-15.4134 -0.2267,-5.2266 -0.56,-10.4533 -0.9334,-15.68 -0.36,-5.12 -0.6666,-10.28 -1.4533,-15.3466 -0.3467,-2.24 -0.8133,-4.4267 -1.3467,-6.64 -0.1066,-0.4134 -0.2266,-0.84 -0.3466,-1.2667 0.52,-0.093 1.0533,-0.1733 1.56,-0.28 1.7333,-0.3333 3.44,-0.68 5.16,-1 3.24,-0.6267 6.5333,-1.0933 9.76,-1.84 6.9466,-1.64 13.72,-3.9733 20.3066,-6.72 9.3467,-3.8933 18.2,-8.8667 27.2667,-13.3333 4.6133,-2.2667 9.0667,-4.8134 13.3467,-7.6933 4,-2.7067 7.8933,-5.6934 11.6666,-8.72 0,0 0.053,-0.04 0.1067,-0.093 0.013,-0.013 0.04,-0.04 0.067,-0.053 3.1733,-2.56 6.2933,-5.28 9.3866,-7.9867 2.0134,-1.7733 4.0267,-3.56 5.08,-6.08 1.04,-2.4533 1.12,-5.0533 1.0134,-7.6666 -0.1467,-3.7067 -0.9467,-7.32 -1.9734,-10.8667"
         style="fill:#5e9445;fill-opacity:1;fill-rule:nonzero;stroke:none;stroke-width:0.133333" />
      <path
         id="path13"
         d="m 3865.2132,3438.6326 c -4.5466,-8.2933 -9.4933,-16.3333 -14.6533,-24.2666 -16.9467,-29.52 -30.76,-62.8667 -54.3333,-88.1733 -16.3467,-17.24 -32.8134,-35.64 -55.9867,-43.4 -31.0133,-12.48 -66.96,-14.76 -99.2933,-5.9067 -21.4267,6.1867 -38.7867,21.6667 -57.96,32.72 -13.04,-31.8667 -47.9867,-46.2133 -80.6267,-46.1333 -26.6533,-1.68 -52.2133,7.6666 -73.7467,22.92 -43.48,27.28 -78,66.7733 -98.4666,113.9199 -15.7733,34.0267 -28.92,71 -26.4,109.0934 -0.1333,4.4266 0.5333,9.7066 5.64,10.8666 20.7467,2.9067 41.5866,1.6667 62.3866,0.1334 33.8934,-0.6934 68.76,-3.6267 102.1334,-10.1867 2.3466,30.3733 16.64,57.76 33.2666,82.76 10.3467,13.88 23.1734,25.7867 32.7067,40.36 9.08,12.9867 20.3067,24.1733 30.9867,35.8667 12.24,13.3733 23.4133,27.8666 37.1733,39.7733 9.1867,6.7067 17.7867,14.4533 27.04,20.9333 9.0133,1.8134 15.08,-8.1333 20.68,-13.7066 22.84,-23.1734 35.36,-53.6534 50.1867,-82.0934 10.5333,-21.52 19.9333,-43.7866 26.44,-66.8666 3.24,-14.3067 3.44,-30.3734 7.3733,-44.84 21.0533,-1.72 42.7733,1.0133 63.36,-5.3467 17.0267,-6.7067 33.9733,-14.4267 49.0533,-25.08 7.6934,-4.24 16.3334,-7.5333 23.28,-13.1467 3.12,-2.1866 3.44,-6.0666 3.0134,-9.5466 -0.3867,-11.5867 -7,-21.3867 -13.2534,-30.6534"
         style="fill:#5e9445;fill-opacity:1;fill-rule:nonzero;stroke:none;stroke-width:0.133333" />
      <path
         id="path14"
         d="m 3516.2532,4053.766 c -0.08,-8.36 -0.7866,-17.2934 -1.44,-26.2267 -3.2533,-41.9333 -18.92,-81.4 -37.2266,-118.92 -21.6134,-36.5333 -49.5734,-70.3467 -83.4934,-95.9467 -43.76,-35.12 -103.1999,-42.28 -156.5999,-29.0133 -20.9867,-41.8 -66.0134,-40.8667 -106.4267,-36.68 -48.08,4.2933 -89.3467,31.92 -123.64,64.2667 -35.1333,32.4266 -70.84,65.32 -95.4133,106.8666 -5.8667,10.92 -35.88,54.6134 -27.3334,64.1734 19.3334,13.3866 41.1734,24.0533 64.2267,29.2933 41.0933,7.2667 82.6667,6.0133 124.28,4.48 2.4133,19.5733 2,39.6667 7.3467,58.7733 3.64,12.7467 9.5333,24.0934 14.9333,36.4667 23.3467,50.56 57.0667,119.5067 111.2133,141.8533 3.0534,1.4534 6.4,0.36 8.8934,-1.64 6.0533,-4.4266 11.4,-9.3466 17.52,-14.3733 31.5466,-21.88 67.9466,-42.88 85.04,-79.1467 11.6,-23.4133 22.2533,-47.2133 31.9599,-71.4666 0.28,-0.6267 1.0134,-0.76 1.64,-0.8667 5.5734,-0.6533 11.3734,-1.1467 17.0134,-1.4933 14.8266,-0.8 28.8133,5.0533 43.4533,6 16.64,0.72 33.1067,-2.84 49.5067,-5.28 17.2533,-3.8534 35.08,-6.7334 50.4133,-16.12 5.24,-2.84 3.9467,-9.9467 4.1333,-15"
         style="fill:#5e9445;fill-opacity:1;fill-rule:nonzero;stroke:none;stroke-width:0.133333" />
      <path
         id="path15"
         d="m 3061.2533,3558.4593 c 30.7866,-11.12 59.7333,-26.4 85.8533,-46.1733 22.8267,-15.72 44.5733,-33.0534 62.64,-54.2667 8.3333,-7.3733 12.84,-16.96 2.88,-25.2933 -20.5733,-23.0667 -48.8,-36.1334 -74.3333,-52.5334 10.76,-18.28 18.8533,-38.3066 28.24,-57.3999 5.7866,-10.5867 12.6133,-20.6667 17.0266,-32.1467 6,-14.6933 9.9067,-30.84 14.8,-46.04 8.2667,-26.4533 15.96,-53.0533 17.6267,-80.8533 1,-10.44 1.4667,-20.92 0.7067,-31.4134 -0.8667,-11.3733 -1.1067,-23.9333 -8.3734,-33.3066 -1.1466,-1.8667 -3.1733,-2.88 -5.2666,-3.3067 -16.0534,-3.0533 -32.5334,-1.56 -48.7067,-0.5067 -45.3733,3.1334 -91.48,12.6 -133.44,30.3334 -38.0133,18.1866 -76.0667,38.44 -106.96,67.52 -12.9733,-30.0267 -46.9067,-51.28 -77.0533,-61.2134 -16.8267,-4.12 -34.2,-6.16 -50.9467,-10.76 -6.6933,-1.6 -13.2,-2.7333 -19.76,-4.9066 -7.1733,-3.76 -9.96,0.7466 -11.2933,7.04 -17.9334,45.72 -38.08,92.0666 -38.88,142.04 -1.4134,38.1333 -2.96,76.5599 2.36,114.5466 17.8133,88.16 61.28,165.88 162.5333,159.96 22.3333,22.5067 54.7467,32.16 85.6267,35.1467 32.4933,2.0666 65.0533,-2.76 94.72,-16.4667"
         style="fill:#5e9445;fill-opacity:1;fill-rule:nonzero;stroke:none;stroke-width:0.133333" />
      <path
         id="path16"
         d="m 2629.5333,3760.0193 c -10.5467,-4.1467 -21.48,-7.04 -32.4934,-9.5867 -16.4133,-5.4533 -33.4,-10.0666 -50.7466,-11.8533 -10.6667,-31.6133 -40.04,-59.1867 -73.5467,-64 -17,-2.3067 -34.2933,-1.2 -51.3867,-0.68 -23.6666,1.1867 -47.5466,1.9733 -70.5733,8.12 -47.1733,12.76 -86.5467,43.8933 -129.2267,66.5867 -13.0533,4.88 -7.0266,18.1333 -2.5466,27.32 10.1733,19.28 27.5866,32.3466 42.9866,47.4266 15.4934,14.5334 35.9467,21.88 55.88,28.1734 -48.4,70.0266 -48.9066,123.5866 -42.28,205.4 1.88,22.2266 6.64,119.8666 30.0134,124.6666 22.52,0.7067 44.2933,-7.2133 65.64,-13.4666 17.7466,-4.5734 36.4,-8.1334 52.6533,-17.2134 31.9067,-19.5866 64.32,-38.6933 95.32,-59.64 29.4267,-21.2 56.7467,-46 87.56,-64.96 5.3333,7.3867 7.72,16.4 12.6133,24.0534 7.0534,10.9733 19.1734,16.9066 29.1867,24.7333 10.16,8.0667 20.92,15.0933 32.4667,21.1733 12.7466,7.64 25.5866,15.56 39.84,20.2267 10.6133,4.96 13.04,2.36 17.24,-7.44 7.84,-18.0267 12.2,-37.36 16.2933,-56.6267 9.5067,-60.3866 21.84,-125.9333 -3.3467,-184.2 -22.9866,-53.1333 -65.8533,-91.9333 -121.5466,-108.2133"
         style="fill:#5e9445;fill-opacity:1;fill-rule:nonzero;stroke:none;stroke-width:0.133333" />
      <path
         id="path17"
         d="m 2036.6266,3361.406 c 5.28,16.4933 14.4933,31.2933 22.84,46.36 8.44,15.08 17.92,29.6533 30.88,41.2533 33.56,36.8533 79.7467,65.5733 131.0533,63.8667 14.2267,0.3066 28.6134,-0.2267 42.64,-2.5867 15.5734,-3.2667 29.68,-11.0533 43.68,-18.2933 34.6667,8.2266 71.1867,-8.1467 96.2134,-31.84 29.2933,-23.1867 53.3066,-51.1467 74.4933,-81.8667 13.1733,-17.6 26.68,-36.0667 37.44,-55.4666 15.12,-28.4667 25.9333,-59.3067 43.2267,-86.68 4.6666,-9.52 21.9466,-30.12 8.7733,-38.4 -7.7467,-5.24 -17.3467,-6.8534 -26.3333,-9.24 -37.12,-11.32 -76.4267,-6.76 -113.92,0.4533 -1.0667,-16.1733 1.76,-32.4667 -0.16,-48.6933 -3.1067,-40.7067 -16.52,-80.3334 -36.76,-115.64 -7.8534,-15.6267 -17.7467,-29.9467 -28.6267,-43.5734 -6.4133,-7.7733 -11.0933,-16.9866 -18.6533,-23.72 -1.4134,-1.24 -3.1734,-1.92 -5.0667,-1.7733 -10.3333,2.1733 -18.4133,10.12 -27.3733,15.36 -26.12,16.3467 -49.32,37.24 -69.6667,60.3467 -31.24,38.6666 -51.6533,85.92 -59.7333,134.9466 -15.68,-11.4666 -35.4934,-12.6666 -54.2934,-12.1066 -27.9066,-0.9467 -55.88,-0.7467 -83.3466,4.84 -3.4267,0.5066 -7.1334,1 -10.6934,1.36 -2.5866,0.2533 -5.7733,0.093 -7.8266,1.9333 -2.4134,2.1467 -2.2934,5.3867 -2.4267,8.3333 -4.0533,35.64 -3.4267,71.3467 0.1867,107.0667 1.5866,28.3467 3.6933,56.84 13.4533,83.76"
         style="fill:#5e9445;fill-opacity:1;fill-rule:nonzero;stroke:none;stroke-width:0.133333" />
      <path
         id="path18"
         d="m 2030.7066,3514.5393 c -34.12,-73.0533 -128.7733,-73.9867 -197.9866,-63.52 -0.013,0 -0.027,0 -0.053,0 -45.44,8.4933 -89.6533,24.6133 -131.5333,44.1067 -21.8,11.2933 -42.88,24.5733 -65.2267,34.3866 -2.72,3.3467 -0.36,7.4134 2.0667,10.1467 3.4533,4.2267 6.8267,8.5733 10.44,13 26.4533,34.4667 67.3467,56.3733 110.1867,62.5067 -22.0534,41.0533 -26.7467,88.9466 -28.3467,134.88 -0.3733,24.0266 -8.08,75.16 12.88,90.84 12.5067,2.5066 25.5733,-1.9067 37.8267,-4.44 15.2933,-2.76 30.64,-5.24 45.52,-9.8534 30.28,-8.3866 60.5733,-18.2 88.4533,-32.8133 12.4933,-7.0933 23.16,-16.0267 34.4533,-24.9733 6.9467,15.32 11.7334,31.5333 21.5867,45.64 20.36,24.32 48.0933,44.1733 78.4266,53.7466 0,0 0.013,0 0.04,0 0.027,0.013 0.08,0.013 0.08,0.04 3.8934,1.3734 9.1867,1.6534 10.8934,-2.96 2.4,-6.5066 6.92,-11.92 10.7466,-17.6133 8.8,-12.6933 18.76,-24.7333 25.7734,-38.5333 7.28,-14.7867 12.64,-30.5067 18.9466,-45.8667 20.84,-46.64 15.84,-100.2 -3.8666,-146.4667 -15.96,-44.0533 -41.2534,-77.4933 -81.3067,-102.2533"
         style="fill:#5e9445;fill-opacity:1;fill-rule:nonzero;stroke:none;stroke-width:0.133333" />
      <path
         id="path19"
         d="m 1703.7466,3190.5527 c 0.027,0 0.04,0 0.053,0 24.76,-2.16 46.9733,-11.88 69.2533,-22.7067 33.44,-13.8533 61.2667,-37.4533 90.5467,-58.2267 13.52,-10.1066 26.0266,-20.1333 39.44,-30.68 5.2133,-4.4266 12.24,-8.68 14.9466,-15.6 2.4134,-12.24 -7.5066,-23.2533 -14.52,-32.5466 -23.2266,-27.12 -56.8533,-42.2534 -86.68,-60.6134 -0.8533,-1.12 -1.56,-2.5333 -0.96,-3.9466 5.4134,-13.8267 10.4667,-27.84 13.2934,-42.4534 8.8266,-32.92 14.6933,-67.24 12.0666,-101.5866 -1.2266,-18.76 -2.76,-37.4667 -4.4933,-56.16 -1.1067,-7.84 -1.28,-21.0267 -12.5733,-18.4934 -36.9734,5 -75.52,10.0667 -109,27.4667 -43.9867,23.7733 -73.64,65.8933 -98.96,107.72 -12.32,-15.12 -32.4667,-17.4933 -50.76,-17.1733 -13.9734,-0.6134 -28.0267,-0.027 -41.9334,1.4 -12.5866,1.2266 -25.08,2.5866 -37.4933,5.0533 -5.1733,0.2667 -7.0533,4.3867 -7.1467,8.9333 -4.1333,21.0134 -2.8,42.3067 -2.5866,63.6934 -0.9467,35.6666 -1.4934,72.8266 13.6666,106.0133 21.8534,54.5067 61.56,126.84 127.48,130.08 7.3867,9.9467 21.44,12.8267 33.1067,14.28 18.0133,2.1467 35.4667,-1.7333 53.2533,-4.4533"
         style="fill:#5e9445;fill-opacity:1;fill-rule:nonzero;stroke:none;stroke-width:0.133333" />
      <path
         id="path20"
         d="m 1381.7466,3240.9793 c -22.1066,-35.0666 -67.1426,-46.5466 -105.8853,-52.3866 -85.8653,-9.9334 -170.3333,23.2133 -239.3693,72.48 -13.432,7.28 1.104,19.0266 6.5,26.8133 15.604,19.84 35.2946,37.2933 56.2266,51.56 9.224,7.2533 19.3787,14.5733 30.9654,17.9733 -25.1894,30.4667 -39.5694,68.5067 -41.208,108.1733 -3.448,26.9334 -8.328,54.92 -3.6027,82.0934 0.1893,6.9466 4.672,9.7333 11.1893,9.7333 8.88,0.4667 17.7254,-0.8267 26.5694,-1.0267 58.1226,1.9067 116.6413,-17.2266 162.2986,-53.2 1.224,27.5734 17.7587,41.84 34.2934,61.64 3.984,4.96 7.5866,9.6134 12.1213,14.6267 9.368,10.12 22.1013,16.4667 33.9013,23.5067 13.2667,4.3066 34.2267,-27.92 41.6667,-38.1467 16.5867,-23.48 30.3333,-48.88 39.2667,-76.2533 11.8133,-35.7334 28.4,-71.6 27.5866,-109.92 0.1467,-34.32 -9.8266,-68.2267 -29.4533,-96.5867 -15.12,-20.7866 -39.4133,-32.5066 -63.0667,-41.08"
         style="fill:#5e9445;fill-opacity:1;fill-rule:nonzero;stroke:none;stroke-width:0.133333" />
      <path
         id="path21"
         d="m 1091.4586,3021.806 c 16.7774,-47.0667 19.7947,-96.2933 -5.2413,-141.2133 -9.328,-18.16 -15.328,-38.4534 -29.0173,-53.96 -3.2934,-2.8 -8.0174,-0.04 -11.0014,1.92 -18.1546,13.3733 -35.9826,28.4533 -48.22529,47.64 -12.86267,-22.9467 -33.50133,-38.7334 -54.55333,-53.7867 -39.984,-30.2933 -86.93333,-49.9867 -135.15867,-62.5067 -7.48266,1.36 -6.38,11.3867 -7.69066,17.1867 -1,7.9733 -1.37867,16.2533 -2.292,24.3333 -1.63867,12.6 -3.96667,25 -3.46667,37.84 2.06933,36.5067 3.656,75.7734 22.74267,108.1334 -26.156,0.9066 -48.19067,15.7866 -67.62267,32.2533 -9.63867,7.48 -19.328,15.3333 -27.984,24.0667 -1.74133,1.7333 -3.74133,3.3333 -4.328,5.8133 -0.58533,2.4133 0.31067,4.9867 1.19067,7.2133 7.172,17.0267 18.276,32.08 29.03466,47.0267 17.12134,24.8533 38.364,46.5733 63.38134,63.6 22.984,17.5867 50.69066,31.1467 79.95066,34.6 37.588,1.6533 80.17467,-0.48 108.26133,-28.8133 50.01866,-24.7067 76.46796,-57.96 92.01996,-111.3467"
         style="fill:#5e9445;fill-opacity:1;fill-rule:nonzero;stroke:none;stroke-width:0.133333" />
      <path
         id="path22"
         d="m 783.96665,3378.7793 c -13.36134,-7.0533 -26.776,-12.6133 -42.24134,-13.12 -19.31199,-14.04 -49.03599,-8.5733 -71.17466,-4.4933 -49.76,10.6133 -92.744,40.2933 -126.91866,77.24 -7.724,8.24 -15.87867,16.7733 -22.84534,25.8133 -1.70666,2.1333 -2.948,4.7867 -2.65466,7.6 11.91333,26.04 59.65733,22.3733 83.60533,31.76 -3.79333,32.4 -6.344,66.5867 7.328,97.2667 4.67333,8.9066 9.156,21.9066 19.41466,25.3333 23.06934,-3.04 44.932,-12.72 66.00134,-22.3333 17.828,-9.8 31.07066,-25.6934 44.27733,-40.7867 19.01866,28.6933 52.20933,42.44 83.48533,53.6933 3.67333,1.6934 7.48267,0.5467 8.98267,-3.2533 5.29333,-8.8267 10.38,-17.8 13.536,-27.7867 18.25866,-53.4666 13.51733,-115.9066 -14.69067,-165.16 -11.448,-17.3866 -26.41467,-33.8266 -46.10533,-41.7733"
         style="fill:#5e9445;fill-opacity:1;fill-rule:nonzero;stroke:none;stroke-width:0.133333" />
      <path
         id="path23"
         d="m 411.71466,3567.6193 c -8.46534,-13.5067 -19.56934,-24.88 -29.328,-37.3867 -40.05334,-45.4666 -105.52,-36.9333 -157.556,-20.6 -21.13867,5.6667 -42.088,11.8534 -61.98533,21.1334 -0.0693,0.04 -0.12,0.053 -0.172,0.067 -0.12133,0.053 -0.24133,0.12 -0.36267,0.1734 -1.81066,0.76 -3.63733,1.6133 -5.448,2.4133 -6.91466,2.9467 -13.828,5.9867 -21.03466,8.2 -6.32854,0.88 -12.10454,4.24 -7.5868,11.0667 12.82813,13.1066 27.2588,25.4266 42.8108,35.32 15.328,9.4533 33.00133,13.8666 50.15733,18.7333 -31.34533,27.7333 -48.484,85.72 -52.32933,126.5067 -1.75867,11.0266 13.58666,11.4533 21.29333,12.08 14.50133,0.6933 28.536,-3.6667 41.864,-9 13.13866,-5.2934 27,-8.4667 40.312,-13.2934 11.08533,-4.4266 20.87866,-11.4266 30.656,-18.1733 1.724,24.7733 4.65466,50.72 23,69.4667 14.24133,12.9866 27.98399,26.64 42.13866,39.7066 5.31067,3.9334 10.22533,-2.9333 13.88,-6.2533 29.34667,-29.2667 44.19067,-69.6133 55.22667,-108.76 7.96533,-30.1733 10.74133,-64.9067 -6.12134,-92.68 -6.74133,-12.8133 -11.31066,-26.5333 -19.41466,-38.72"
         style="fill:#5e9445;fill-opacity:1;fill-rule:nonzero;stroke:none;stroke-width:0.133333" />
      <path
         id="path24"
         d="m 395.49466,3552.406 c -40.48934,11.08 -83.45467,11.2533 -125.452,10.88 -44.664,-1.6134 -89.52,-4.4 -132.97733,-15.84 -0.768,-1.3334 -2.65733,-1.3334 -3.596,-0.2134 -1.86573,2.4534 1.264,4.4667 3.48267,4.7734 8.668,3.1066 17.3,6.3466 26.42266,8 38.22933,8.3733 77.66267,12.3333 116.92667,13.6 35.124,0.92 70.47066,-0.7067 104.49733,-9.4934 -9.012,9.0934 -20.05734,16.2534 -29.552,24.8267 -36.78267,32.4 -72.87867,65.6667 -111.57333,96.04 -20.76,15.3333 -40.29867,32.0933 -62.14,45.9467 -1.01067,1 -2.696,1.4 -3.18933,2.8266 -0.344,1.16 0.328,2.4 1.48266,2.7467 19.84,-9.9467 37.012,-26.6133 55.864,-38.9333 48.78,-32.2934 91.64667,-72.4267 134.96933,-111.6534 5.06133,-3.84 9.604,-8.7733 14.304,-13.4933 -0.86267,1.9467 -1.70667,3.9067 -2.46667,5.8933 -5.75866,19.2134 -11.07466,38.4667 -14.74266,58.3067 -4.01867,26.5467 -4.484,53.8533 -4.672,80.7333 -0.48134,25.9734 0.22266,52.1067 3.672,77.9067 1,4.24 -0.35734,11.68 4.448,13.6133 6.24666,0.16 1.33733,-13.8133 1.392,-18.0266 -1.03734,-6.56 -2.188,-13.36 -2.84,-20.0667 -3.79867,-35.96 -0.57334,-72.3467 2.29333,-108.4133 0.83467,-14.9867 3.87733,-30.2934 8.91467,-44.64 4.86533,-16.6934 9.62,-33.44 16.74133,-49.3467 1.15867,-3.56 3.508,-8.1867 1.884,-11.8133 -0.14267,-2.1067 -1.644,-4.16 -4.09333,-4.16"
         style="fill:#cbe3ac;fill-opacity:1;fill-rule:nonzero;stroke:none;stroke-width:0.133333" />
      <path
         id="path25"
         d="m 802.24131,3559.4593 c -12.91733,-25.44 -22.336,-52.52 -31.48533,-79.5067 -6.90933,-19.8533 -13.56933,-40.3733 -15.79333,-61.48 -1.65867,-12.1733 -4.05467,-24.48 -2.672,-36.92 0.48266,-2.84 -0.944,-5.0133 -2.92267,-6.1066 -1.84,-1.5467 -4.77867,-1.8134 -6.66267,0.013 -0.55866,0.7467 -0.98666,1.56 -1.368,2.4133 -0.28933,0.2267 -0.584,0.4534 -0.824,0.7467 -41.75333,41.2267 -83.82266,63.16 -141.21199,75.0933 -18.01867,4.36 -36.17467,8.1467 -54.38,11.64 -3.57467,0.5334 -8.30667,1.0134 -11.87733,2.7867 -0.99867,-0.08 -2.004,0.5333 -2.312,1.5733 -0.56534,1.8667 1.356,3.1067 2.98266,3.36 16.38267,0.3867 32.33334,-3.96 48.34667,-6.8666 32.66133,-5.92 64.964,-14.1867 95.244,-28.0267 19.95066,-9.8133 38.12533,-23.1333 54.84666,-37.76 0.556,-0.48 1.06934,-1 1.61867,-1.48 -1.46133,3.4267 -3.00267,6.84 -4.61733,10.1733 -18.6,44.2534 -37.78134,88.5867 -60.15734,131.1867 -8.85333,21.6667 -22.716,40.6267 -33.10533,61.5733 -1.59733,3.3334 -3.32533,6.5867 -4.93333,9.92 -0.90934,0.84 -0.90934,2.2267 -0.11734,3.12 3.52934,2.7867 4.70667,-3.1333 6.14534,-5.36 8.82266,-15.7466 19.28266,-30.6133 28.83866,-45.96 12.67867,-22.3866 25.56134,-44.4933 37.31334,-67.48 15.30933,-28.9333 26.13866,-59.72 38.58533,-89.9333 0.26933,-0.8 0.56666,-1.5867 0.84666,-2.3733 1.01467,10.1466 2.608,20.2666 4.42934,30.3333 2.80933,19.4533 8.82533,37.9867 15.62,56.6133 8.99866,27.0134 20.10533,53.1734 34.05333,78.0534 6.91467,14.3466 14.656,28.5466 24.97867,40.76 1.26,1.7333 4.18,0.4266 3.88266,-1.6267 -0.604,-2.1333 -1.68133,-4.0933 -2.60266,-6.12 -7.148,-14.0267 -14.70534,-27.7867 -20.68934,-42.36"
         style="fill:#cbe3ac;fill-opacity:1;fill-rule:nonzero;stroke:none;stroke-width:0.133333" />
      <path
         id="path26"
         d="m 811.02931,2768.7527 c 0.268,0.013 0.524,0.08 0.76267,0.1733 0.0333,0 0.048,-0.013 0.0813,-0.013 -0.25866,-0.093 -0.54,-0.1334 -0.844,-0.16"
         style="fill:#cbe3ac;fill-opacity:1;fill-rule:nonzero;stroke:none;stroke-width:0.133333" />
      <path
         id="path27"
         d="m 1048.6693,2968.6993 c 6.964,-43.6266 11.536,-88.6666 4.2893,-132.52 1.4307,-1.2933 0.3907,-3.8 -1.5306,-3.7733 -1.684,-0.16 -2.868,1.36 -2.8467,2.92 -1.868,10.6933 -0.9053,21.6133 -1.6013,32.4533 -1.688,28.7867 -2.4747,58.3467 -6.8627,87.0934 -3.2853,23.7066 -8.3947,47.1066 -14.448,70.2666 -7.0587,26.64 -11.172,54.0934 -19.3293,80.4267 -1.8,-2.08 -3.6667,-4.2667 -5.4947,-6.64 -14.75999,-18.24 -28.04532,-37.36 -39.58666,-57.8133 -24.504,-44.3334 -48.40133,-88.9734 -72.76133,-133.3867 -23.01866,-46.64 -45.43466,-94.2533 -75.28266,-137.0667 -0.112,-0.84 -0.676,-1.4666 -1.42267,-1.7333 -11.55067,-1.2933 15.572,36.9467 18.18533,42.4133 24.24534,42.3067 46.63067,85.4 70.14533,128.1734 7.42667,15.4666 15.64267,30.52 22.996,46.32 11.644,27.04 25.744,53.0133 41.656,77.8666 7.97334,14.2134 19.108,26.3334 29.00134,39.2934 0.22933,0.24 0.444,0.5066 0.668,0.76 -0.53067,-0.2667 -1.04134,-0.56 -1.51734,-0.92 -31.95733,-17.6667 -61.956,-40.04 -96.28,-53.44 -51.46399,-22.88 -107.70933,-32.9867 -163.24399,-39.7334 -2.48933,-3.0133 -7.04133,0.84 -4.72533,3.8134 2.97466,2.6933 7.49999,1.5733 11.21466,1.8933 43.888,2.44 85.60933,16.2267 126.94533,30.2667 47.956,16.0933 86.52,52.04 132.744,71.6 1.61869,0.2533 3.10669,-0.28 4.25199,-1.2267 0.2973,0.7067 0.832,1.3333 1.6973,1.8133 1.2694,0.68 2.38,0.6134 3.3147,0.1467 0.019,0.013 0.033,0.013 0.051,0.027 2.5533,0.56 5.1373,-1.9734 4.3293,-4.56 -0.2107,-0.64 -0.5467,-1.2 -0.9547,-1.7067 6.1907,-18.9867 11.0414,-38.7333 15.916,-58.12 6.9174,-28.3067 16.2907,-55.9733 20.4827,-84.9067"
         style="fill:#cbe3ac;fill-opacity:1;fill-rule:nonzero;stroke:none;stroke-width:0.133333" />
      <path
         id="path28"
         d="m 1375.5866,3467.5393 c -2.4933,-19.12 -3.9066,-38.1867 -4.9733,-57.4533 -0.9733,-15.04 -2.6133,-30.8 -2.88,-46.2 -2.56,-26.7734 -2.3733,-52.92 0.2133,-79.8133 1.8134,-9.7867 1.8267,-20.4267 5.8667,-29.5734 1.7867,-3.4133 0.7067,-7.0533 -1.64,-9.3866 -1.2667,-3.9734 -6.1067,-6.5467 -10.2533,-4.5734 -0.12,0.067 -0.2534,0.1334 -0.3734,0.2 -35.4493,-10.52 -73.1426,-8.08 -109.768,-4.88 -27.448,3.2534 -54.896,6.2667 -82.2773,10.1067 -16.604,3.2267 -32.8733,7.7867 -49.6573,10.2933 -24.8814,5.4134 -50.144,7.3334 -75.4507,9.64 -9.7347,1.04 -5.4107,7.04 1.4653,6.3067 47.8014,-0.16 93.6974,-15.9333 140.764,-21.8533 31.588,-4.64 63.6147,-4.64 95.5027,-4.9734 17.8853,-1.1866 35.5787,0.1334 53.4213,3.4134 2.92,0.5466 5.8267,1.3466 8.72,2.1866 -0.9466,0.7067 -1.9333,1.3734 -2.8133,2.1734 -19.9893,18.56 -38.824,38.0666 -56.2387,59.08 -33.132,38.4266 -59.3946,82.0933 -90.952,121.7866 -26.1786,35.2533 -54.1426,69.6533 -86.44,99.5333 -2.4226,2.8267 -13.468,9.08 -8.7706,11.9467 1.7906,1.1467 3.776,-0.48 5.1733,-1.5067 13.4253,-10.4 25.1653,-22.6 36.3147,-35.3466 22.2946,-24.7734 43.644,-51.1334 63.9986,-77.76 22.6,-28.48 44.9894,-57.1334 67.9507,-85.3067 24.5147,-27.4666 49.924,-53.7466 76.3373,-79.4533 2.9867,-2.7733 6.2934,-5 9.7734,-6.9467 -0.6934,24.1467 -2.08,48.6934 -0.8,72.92 3.56,50.1067 9.8266,100.1333 14.84,150.1467 0.2133,30.4666 1.3066,61.32 -2.64,91.5866 -0.5334,4.04 -3.68,10.84 -2.96,14.64 1.2533,2.3067 5.1333,0.8934 4.2533,-1.7066 5.8133,-18.4934 5.12,-38.04 5.9333,-57.2134 -0.28,-20.68 1.1334,-41.4533 -1.64,-62.0133"
         style="fill:#cbe3ac;fill-opacity:1;fill-rule:nonzero;stroke:none;stroke-width:0.133333" />
      <path
         id="path29"
         d="m 1659.6,3134.9393 c 19.8,-15.1066 39.36,-30.9466 61.8666,-41.92 52.1467,-25.1066 110.44,-36.5733 168.2134,-34.28 4.6,0.12 9.28,-0.2 13.64,1.5067 0.52,0.1733 1.2266,0.4533 2.0533,0.1467 1.1333,-0.4134 1.68,-1.7467 1.2533,-2.8534 -1.0933,-1.9466 -3.7733,-1.92 -5.76,-2.56 -73.2,-10.5866 -162.6133,14.0667 -222.6533,56.8267 -15.52,11.28 -31,22.7467 -45.3333,35.52 2.1733,-9.5867 4.16,-19.2267 6.5466,-28.76 9.88,-39.92 19.8934,-79.7333 35.52,-117.9867 12.8267,-32.7733 26.3334,-65.6266 43.1734,-96.5866 31.68,-50.7867 70.0133,-97.8134 106.8133,-144.8934 2.4,-0.7733 1.7333,-4.2666 -0.68,-4.32 -1.6667,0.027 -2.4667,1 -3.2933,2.36 -31.7334,30.3334 -57.96,65.7067 -82.9067,101.8534 -9.7733,14.52 -20.08,28.6666 -29.4,43.48 -9.76,16.2933 -17.2,34.3733 -25.6533,51.4266 -15.0934,34.0534 -29.8,68.3734 -40.76,103.9867 -8.9467,24.76 -16.3334,50.2 -23.48,75.5733 -0.68,-5.6 -1.4934,-11.24 -2.2134,-16.9866 -7.28,-61.56 -28.7733,-121.0934 -63.56,-172.4534 -15.8533,-24.9466 -37.5066,-45.28 -59.36,-64.9333 -2.6533,-2.0933 -7.8266,-1.76 -6.92,2.5333 0.4134,1.3734 1.7467,2.1734 2.92,2.84 5.12,2.4934 9.56,6.2 13.5734,10.2134 42.2,40.4133 71.7066,93.8 86.0933,150.4 10.1867,39.36 18.84,79.4666 21.2533,120.12 0.1867,0.5466 0.4934,1.0133 0.84,1.44 -0.24,2.3066 -0.16,4.64 1.24,6.6 2.5734,3.6 7.08,4.4933 10.76,2.2933 1.2267,-0.76 2.0667,-1.7867 2.6934,-2.9333 1.8933,-1.7734 3.16,-4.4 4.6,-6.5334 8.3066,-11.3466 18.0133,-21.8933 28.92,-31.12"
         style="fill:#cbe3ac;fill-opacity:1;fill-rule:nonzero;stroke:none;stroke-width:0.133333" />
      <path
         id="path30"
         d="m 2040.5466,3829.7526 c -10.1067,-27.0133 -16.7867,-55.3466 -21.5067,-83.9866 -5.7333,-39.1734 -3.3733,-78.5734 0.2,-117.7867 1.7867,-30.6 6.6934,-61.92 1.88,-92.44 -0.3866,-2.2933 -0.3333,-4.8 -0.7466,-7.1333 1.7333,-1.1734 2.9733,-2.84 2.6666,-5.2134 -0.2933,-3.1066 -3.64,-5.2133 -6.5866,-4.3466 -0.24,0.12 -0.4934,0.1866 -0.7334,0.28 -0.7466,-0.5334 -1.6,-0.96 -2.6533,-1.1467 -22.6266,-6.1333 -45.72,-5.6267 -68.8933,-6.4133 -45.12,-2 -89.56,8.6933 -134.0533,14.8 -20.8267,3.8933 -41.7467,5.9333 -62.9067,7.4933 -24.9467,2.3467 -50.2533,5.5067 -75.2667,2.52 -8.3733,-0.2933 -16.52,-0.8267 -24.96,-0.8267 -1.32,0.1334 -2.4133,1.2667 -2.1466,2.7067 0.24,1.16 1.4,1.9333 2.5466,1.72 12.08,0.3067 24.16,2.9733 36.2267,4.12 73.8667,0.9867 146.5067,-14.3333 220.1067,-19.5867 17.4933,-1.3866 34.76,-0.6933 52.28,0.4934 12.56,-0.1467 25.12,0.68 37.64,2.1733 -12.7067,6.0667 -24.48,14.0933 -35.6134,22.7733 -29.1333,26.0934 -59.1333,51.24 -85.7333,80 -22.8,25.08 -43.2933,52.5867 -63.0133,80.1734 -11.44,16.9333 -20.7334,35.2266 -31.0667,52.8266 -13.0267,20.5467 -23.7867,42.2667 -30.72,65.72 -0.7333,1.48 0.68,3.44 2.3867,3.2134 2.6533,-0.5867 1.92,-3.8934 3.08,-5.8134 8.9733,-30.6666 27.24,-57.16 42.7733,-84.8666 22.7467,-38.9867 51.32,-73.88 82.8933,-106.0667 29.64,-27.5467 60.8,-53.3467 93.1067,-77.7467 11.2667,-7.2266 22.8133,-14.4933 34.5066,-21.28 4.3334,14.7734 4.1334,30 3.8934,45.56 0.5466,33.5067 -1.4134,67.08 -3.1067,100.52 0.1467,15.9867 1.7733,31.8934 2.6267,47.8534 4.64,43.8533 18.32,87.2666 38.84,126.24 1.3733,2.6 5.24,0.28 3.8666,-2.12 -4.4266,-7.9067 -8.48,-15.9334 -11.8133,-24.4134"
         style="fill:#cbe3ac;fill-opacity:1;fill-rule:nonzero;stroke:none;stroke-width:0.133333" />
      <path
         id="path31"
         d="m 2293.3733,3482.6193 c 0.92,1.7467 2.64,3.08 4.84,3.0133 0.1066,-0.04 0.2133,-0.08 0.3333,-0.12 3.0933,1.68 7.0267,-0.1866 7.6933,-3.6666 9.2,-6.08 16.3867,-16.8267 24.0534,-24.2534 27.76,-31.1733 42.7333,-70.5466 66.04,-104.8 39.6133,-55.7866 87.72,-110.1199 152.0933,-137.2399 3.96,-1.5867 7.8933,-3.16 11.7867,-4.88 1.08,-0.027 2.0533,-0.8267 2.1866,-1.92 0.2934,-2.36 -2.5066,-3.0534 -4.1866,-2.0134 -58.1867,21.3734 -87.2667,44.96 -127.4534,91.44 -23.16,25.2267 -43.6533,53.0667 -63.1333,81.3067 -11.32,16.88 -21.1867,35.12 -32.92,51.7866 -8.08,12.32 -17.68,23.6534 -27.7733,34.48 -1.3067,1.8934 -2.8534,3.44 -4.4934,4.84 -1.5866,-3.16 -3.24,-6.3066 -4.2533,-9.64 -7.52,-24.48 -12.4933,-49.8933 -15.8267,-75.5333 -6.2133,-50.88 -6.3466,-102.8533 -3.4533,-154.0666 4.88,-43.4934 13.8267,-86.44 21.04,-129.6 6.4933,-30.64 15.36,-60.7467 23.7867,-90.9067 4.2533,-11.7467 7.0266,-23.7333 11.2266,-35.5067 0.6267,-2.1066 3.1734,-6.4666 -0.4133,-7.32 -1.1733,-0.16 -2.28,0.68 -2.48,1.8534 -4.48,14.8 -11.04,29.1333 -16.4,43.7333 -9.2133,31.4667 -19.7733,63.52 -26.72,95.7467 -3.8933,17.76 -7.0267,35.36 -10.92,53.4266 -4.48,22 -9.24,42.68 -12.4133,65.2934 -4.5334,35.9466 -4.6134,73.0933 -3.1067,109.4933 1.8533,31.9466 6.48,63.6533 13.8267,94.7866 2.3733,10.9067 4.8,22.1334 9.0666,32.4667 -4.4533,-2.12 -8.8666,-4.3333 -12.8933,-7.2 -15.4,-9.64 -31.36,-16.64 -45.6,-28.4133 -18.52,-13.0534 -35.2133,-28.3067 -49.6133,-45.8534 -22.84,-24.8666 -37.3067,-55.5333 -53.9067,-84.6133 -11.0933,-24.9733 -24.64,-49.6933 -39.4667,-72.8266 -11.7066,-20.2134 -26.5333,-38.4667 -43.76,-54.1867 -1.84,-1.4667 -4.56,-3.7733 -7.12,-3.0133 -8.7066,4.1866 13.0534,21.04 16.6134,26.12 7.8,9.8266 15.52,19.7733 22.7866,30.0266 11.2934,17.0534 22.8,34.1734 32.4934,52.2667 8.8666,19.7333 16.0133,39.5467 26.8266,58.4933 31.9334,66.72 87.9067,115.1467 154.8667,145 2.1067,0.9333 4.4267,2.0533 6.7467,2"
         style="fill:#cbe3ac;fill-opacity:1;fill-rule:nonzero;stroke:none;stroke-width:0.133333" />
      <path
         id="path32"
         d="m 2718.7333,4086.9126 c -12.6267,-22.3733 -27.4267,-43.8 -36.3334,-68.1733 -23.3333,-68.1067 -39.72,-140.5467 -80.1733,-201.4533 -11.5467,-18.5067 -26.9867,-33.7734 -41.76,-49.6267 -7.6133,-7.7067 -13.2267,-17.4133 -22,-23.92 -0.027,-0.013 -0.067,-0.013 -0.093,-0.04 -0.3734,-0.3333 -0.76,-0.64 -1.1734,-0.9067 -0.8266,-0.1866 -1.68,-0.28 -2.52,-0.44 -0.28,-0.053 -0.5466,-0.1066 -0.8133,-0.1333 -19.9733,-3.6533 -41.28,-0.12 -60.9733,4.1067 -17.52,2.9866 -33.84,6.4 -51.5067,10.32 -32.28,5.92 -64.96,10.76 -98,11.9066 -32.72,2.8 -67.2133,-0.8133 -98.9733,-9.7066 -2.36,-0.68 -3.7734,2.6533 -1.88,4.0266 8.4666,3.12 17.48,5.12 26.3466,7.3467 16.2134,4.1467 32.48,7.2267 49.3467,7.8533 75.28,3.2934 150.32,-14.1066 224.1867,-24.12 0.12,1.5067 0.5866,3 1.4666,4.4134 -0.053,0.053 -0.093,0.093 -0.1466,0.1466 -2.12,2.64 -4.2534,5.2667 -6.3467,7.92 -2.32,2.9867 -4.68,5.9867 -6.84,9.08 -2.2267,3.2 -4.3067,6.4667 -6.4533,9.7067 -3.48,5.28 -6.8267,10.6133 -9.7867,16.2 -2.8,5.3067 -5.1733,10.8267 -7.5867,16.2933 -2.36,5.32 -4.4133,10.7867 -6.6666,16.1467 -2.4,5.64 -4.8667,11.24 -7.3867,16.8533 -4.88,10.76 -10.6667,21.1067 -15.36,31.96 -2.52,5.8134 -4.92,11.6934 -7.3467,17.5334 -2.16,5.2133 -4.4,10.3733 -6.6266,15.5333 -2.32,5.44 -4.6267,10.8667 -7.1867,16.2133 -2.56,5.4267 -5.2267,10.8134 -7.8533,16.1867 -5.28,10.8533 -10.6134,21.64 -15.6134,32.6133 -2.4666,5.36 -4.9066,10.72 -7.2533,16.1467 -2.5067,5.8 -4.9733,11.64 -7.6,17.3867 -2.4933,5.4 -4.7867,10.8533 -7.28,16.24 -2.52,5.4266 -5.28,10.7066 -8,16.04 -2.36,4.2133 -4.9333,9 -7.5733,13.7333 -3.12,5.3467 -6.2267,11.36 -9.44,17.2933 -3.2667,6.0134 -6.5734,12.0267 -9.84,18.0534 -0.56,1.0133 -1.12,2.04 -1.7067,3.0666 -0.48,0.8267 -1.1867,2.1067 -1.88,3.36 -1.0933,1.9067 -2.3333,4.0134 -3.5067,6.16 0.013,-0.013 -0.013,0.027 -0.04,0.08 -0.04,0.08 -0.093,0.16 -0.1333,0.2534 -2.3467,3.8933 -4.7067,7.9733 -7.2933,11.9333 -2.8267,4.3333 -5.6934,8.6533 -8.56,12.96 -5.2934,7.9867 -10.2534,16.2133 -15.7467,24.0667 0,0 0,-0.013 0.013,-0.013 -1.6933,2.1867 -3.4933,4.2134 -5.36,6.24 -1.2,1.2134 -3.1733,2.52 -2.68,4.52 0.2934,1.2267 1.36,2 2.5867,2.0667 0.027,0 0.067,0 0.093,0 1.1467,0 2.1467,-0.9467 2.2,-2.1067 0.013,-0.1466 0,-0.3066 -0.027,-0.4533 0.1466,-0.1333 0.2933,-0.2533 0.44,-0.3867 2.5066,-1.8933 4.8266,-3.96 6.7733,-6.4666 2.12,-2.7067 4.12,-5.48 6.0933,-8.3067 3.2934,-4.7333 6.5334,-9.4667 9.8534,-14.16 3.4933,-4.9333 7.1066,-9.8 10.4,-14.84 3.5333,-5.44 7,-10.9067 10.3333,-16.4667 2.8933,-4.8266 5.84,-9.64 8.5333,-14.56 l 0.053,-0.1066 c 0.04,-0.08 0.093,-0.1734 0.1333,-0.2534 2.64,-4.5466 5.3467,-9.1466 7.9467,-13.8133 2.8666,-4.88 5.7333,-9.88 8.68,-14.84 3.2,-5.3867 6.4133,-10.7467 9.4666,-16.2133 0.4267,-0.7867 1.1467,-2.08 1.88,-3.3734 2.9734,-5.2933 5.84,-11.3466 8.7067,-17.36 2.84,-5.9466 5.6,-11.9333 8.3333,-17.92 4.88,-10.64 9.7467,-21.28 14.9334,-31.7733 5.3733,-10.8133 10.96,-21.5067 16.4533,-32.24 2.76,-5.3867 5.4533,-10.7867 7.9867,-16.2667 2.5333,-5.48 4.96,-11.0133 7.4666,-16.52 4.9067,-10.84 9.4934,-21.8 15.0134,-32.36 5.5333,-10.6133 11.52,-20.9866 16.7066,-31.76 5.1067,-10.6533 10,-21.4 15.68,-31.7733 0.5067,-0.8933 1.0267,-1.7733 1.52,-2.68 l 0.04,-0.067 c 0.1067,-0.2 0.2267,-0.4 0.3334,-0.6 1.96,-3.3333 4.28,-7.0666 6.7733,-10.7066 2.52,-3.6934 5.12,-7.3467 7.5467,-11.12 2.4,-3.7067 4.7333,-7.5067 6.8533,-11.3867 1.9067,-3.5067 3.5333,-7.2 5.48,-10.72 l 0.2533,-0.4667 c 0.053,-0.093 0.1334,-0.2266 0.2,-0.3333 6.4134,5.6133 12.56,11.56 19.3734,16.7333 9.5066,7.96 19.36,14.32 27.5466,23.9467 35.9334,44.0267 54.96,99.1333 72.7867,152.4533 7.92,25.52 13.6933,51.88 25.6133,75.96 9.8,19.56 22.48,37.6 34.2134,56.0667 3.4933,4.9333 7.2133,9.6667 10.8,14.5067 0.4266,0.44 0.64,1.5466 0.7866,2.3066 0.1067,0.8667 0.8,1.6534 1.64,1.8934 2.7867,0.5733 4.2667,-3 3.68,-5.36 -3.04,-7.12 -8.1466,-12.6534 -12.2266,-19.5334"
         style="fill:#cbe3ac;fill-opacity:1;fill-rule:nonzero;stroke:none;stroke-width:0.133333" />
      <path
         id="path33"
         d="m 2922.0266,3523.0993 c 42.4267,-15.8 81.7867,-38.4267 125.7333,-50.7333 -0.3466,0.093 -0.44,0.12 -0.5333,0.1466 -0.027,0 -0.053,0.013 -0.08,0.027 21.1067,-6 41.64,-13.3467 63.8,-17.3733 30.8667,-4.4667 62.3867,-7.8 93.5333,-10.1467 0.9867,-0.2267 2.4134,0.08 3.68,-0.027 0.12,0.027 0.24,0.08 0.3734,0.08 1.2,0 2.24,-0.8933 2.2666,-2.1333 0.04,-1.1733 -0.9333,-2.28 -2.1333,-2.28 -0.2933,0 -0.5867,0.053 -0.8533,0.16 -4.44,-0.7467 -9.4134,-0.1067 -13.9334,-0.4933 -32.08,0.6933 -64.4266,2.6133 -96.04,8.2 -54.4533,11.9733 -105.2266,32.3866 -156.7466,53.32 -15.9067,5.5333 -31.08,13 -46.8934,18.7066 6.3467,-12.28 10.7867,-26.0533 17.1734,-38.4133 14.1866,-38.0667 34.7866,-72.52 55.8933,-107.3467 45.1333,-68.3066 102.5733,-127.5066 158.52,-186.9733 13.72,-13.72 27.4267,-27.4266 40.9333,-41.36 10.9467,-12.36 25.2,-22.9866 32.6934,-37.88 2.2133,0.08 3.0533,-2.8933 1.2533,-4.0533 -1.44,-1.4933 -3.5867,-0.48 -4.6,0.9867 -3.7467,2.36 -6.5467,5.9866 -9.8133,8.9466 -33.6267,33.5067 -68.7467,65.9467 -101.2934,100.5867 -53.4,57.52 -109.5333,113.84 -147.1466,183.6 -14.92,23.0133 -28.16,48.1066 -36.4934,74.4133 -5.52,13.6 -8.1733,28.0533 -12.36,42.0533 -0.3466,-1.84 -0.72,-3.68 -0.96,-5.5333 -2.6666,-30.0667 -7.3066,-59.8133 -11.76,-89.7867 -6.7866,-63.4666 -24.3066,-125.6399 -51.1066,-183.7866 -16.7067,-37.32 -38.2934,-71.96 -57.4134,-108.0533 -1.0533,-3.2667 -3.9866,-4.9334 -5.3733,-1.4667 -0.3467,3.72 2.2267,7.1867 3.9867,10.3867 6.52,9.6133 11.5333,20.1333 17.88,29.8933 5.7733,11.36 12.0266,22.5733 18.4666,33.6933 10.2267,18.4934 17.0667,38.8534 24.6267,58.52 16.5733,42.9067 28.8133,87.64 34.28,133.4 -0.027,-0.24 -0.053,-0.4533 -0.08,-0.6933 3.64,25.2933 4.3467,50.8666 8.44,76.48 1.0267,17.2266 2.64,34.36 7.2667,51.08 1.28,3.6666 1.8533,10.6933 6.0533,13.1066 0.28,0.3467 0.5867,0.7067 0.96,1.04 4.1733,3.36 10,1.16 14.2133,-1 7.6,-3.1466 15.8134,-6.3466 23.5867,-9.2933"
         style="fill:#cbe3ac;fill-opacity:1;fill-rule:nonzero;stroke:none;stroke-width:0.133333" />
      <path
         id="path34"
         d="m 3466.5332,4023.806 c -34.4666,-29.1734 -58.36,-68.0134 -88.16,-101.52 -31.0266,-35.5334 -65.2399,-67.68 -101.0933,-98.32 -11.3866,-10.0534 -23.9333,-19.36 -36.0933,-28.8134 -2.52,-2.6666 -6.1333,-3.4 -9.2267,-2.64 -0.8266,-0.027 -1.6666,0.16 -2.4533,0.4934 -0.5067,-0.36 -1.0667,-0.6534 -1.7067,-0.8267 -18.5733,0.053 -36.84,5.12 -53.7866,12.6533 -20.8134,7.6134 -39.84,17.1867 -60.0134,26.8267 -25.64,13.52 -52.12,26.1067 -76.64,41.8 -22.0266,13.3867 -44.3733,26.5333 -64.4666,42.8133 -24.92,19.3467 -50.4534,38.2267 -77.68,54.2134 -4.36,1.0533 -5.3734,5.2666 -0.88,5.96 4.6933,-0.04 8.08,-3.7067 11.6933,-6.1334 7.32,-3.76 14.8667,-8.5866 21.5867,-13.6666 11.9333,-6.9734 22.4,-16.9467 33.6933,-25.0934 6.2267,-4.3066 11.56,-8.8533 17.2533,-13.9866 14.44,-11.76 30.3334,-21.0267 46.28,-30.88 47.5734,-27.3867 97.2,-51.4934 148.7334,-70.4667 14.0933,-4.0267 27.1333,-12.3333 41.9733,-14.16 2.88,-0.84 5.7333,-0.4 8.56,-0.12 -24.9067,60.2667 -37.92,125.2533 -41.3467,190.2933 -8.0133,84.0934 1.2,169.4534 26.68,249.9067 0.4667,1.16 1.7734,1.6267 2.88,1.24 2.4934,-1.2133 0.88,-4.5867 1.0534,-7.1333 -3.2534,-21.9334 -8.2,-43.5467 -11.5334,-65.5334 -3.36,-17.2933 -6.6666,-35.4266 -7.7066,-53.2533 -5.8134,-60.8 -2.88,-122.2 6.4,-182.6267 5.9733,-39.1733 19.56,-76.3066 29.1333,-114.6266 0.8267,-4.0134 2.0267,-7.9067 3.32,-11.76 1.8133,0.6533 3.7067,1.2533 5.28,2.3333 42.1733,34 82.36,70.76 119.8,110.0933 30.64,30.1067 56.7733,64.6 88.36,93.76 16.9066,15.8 35.9333,28.9867 54.6533,42.48 0.9067,0.72 1.8933,1.44 3.04,0.9467 1.4933,-0.5333 1.8133,-2.56 0.76,-3.6267 -12.8533,-9.9733 -25.9867,-19.96 -38.3467,-30.6266"
         style="fill:#cbe3ac;fill-opacity:1;fill-rule:nonzero;stroke:none;stroke-width:0.133333" />
      <path
         id="path35"
         d="m 3868.1866,3466.9926 c -6.9734,-5.2533 -13.3467,-11.44 -20.52,-16.5333 -29.4267,-17.1333 -59.7067,-31.2933 -91.76,-43.4267 -41.7467,-15.4933 -82.2134,-35.8533 -120.2267,-59.2133 -14.3067,-9.4 -26.8667,-24.36 -43.76,-29.4666 -1.9467,-0.24 -3.5467,-0.1467 -4.9067,0.1466 -1.8266,-3.0266 -6.7733,-3.9333 -9.2533,-0.8266 -27.8933,35.5333 -72.2,51.7599 -110.6667,73.0666 -44.68,23.3467 -90.5066,47.64 -125.0533,85.24 -11.3066,10.0133 -21.8266,21.0667 -29.7466,34.1067 -0.2534,0.1466 -0.52,0.48 -0.6667,0.88 -0.4133,1.12 0.1733,2.4133 1.3067,2.84 1.3066,0.4933 2.4533,-0.3734 3.16,-1.48 5.36,-8.7467 11.8,-16.5867 19.1333,-24.0134 12.2133,-10.68 23.1333,-23.3866 35.96,-33.52 15.2133,-12.76 32.5733,-22.4533 50.0666,-31.9066 29,-14.8134 59.1734,-27.2134 88.2934,-41.8134 23.2533,-11.5866 48.2533,-22.4666 65.16,-42.9333 -1.12,13.4133 -2.08,26.5467 -0.093,40.2933 12.5734,73.4534 25.8267,146.9867 40.4267,220.08 7.5333,40.0267 17.92,80.0934 21.32,120.4667 0.6,0.7867 1.76,0.92 2.6267,0.5333 0.9733,-0.44 1.4266,-1.6133 1.1466,-2.6133 0.1067,-2.4933 0.2667,-4.9467 -0.04,-7.44 -5.3333,-40.3333 -13.8266,-80.12 -21.4666,-120.0533 -11.36,-56.04 -19.32,-112.6934 -27.4667,-169.2667 -1.6,-14.9333 -3.8,-30.6133 -4.9067,-45.84 -1.0133,-14.24 0.4934,-28.36 0.72,-42.6667 8.4267,8.6134 19.2,14.68 29.56,20.6667 21.7334,13.5067 44.2667,26.0133 67.7334,36.2133 43.2666,17.6267 88.0933,31.04 129.8,52.4667 17.0133,7.8133 34.3466,15.08 48.88,27.44 1.7733,2.0533 6.7733,5.1333 7.4,0.68 -0.053,-1.16 -1.0267,-2.08 -2.16,-2.1067"
         style="fill:#cbe3ac;fill-opacity:1;fill-rule:nonzero;stroke:none;stroke-width:0.133333" />
      <path
         id="path36"
         d="m 4372.2132,3293.7527 c -10.3333,-0.013 -20.7066,-1.7334 -31.0266,-2.7334 -27.5734,-2.24 -54.7734,-6.64 -81.48,-14.3733 -61.24,-17.8133 -116.1067,-52.56 -173.12,-80.3867 -1.72,-0.6933 -3.3467,-1.56 -4.92,-2.4933 -0.3334,-0.8667 -0.6667,-1.7467 -0.9734,-2.6 -0.4533,-2.3733 -1.28,-4.5733 -3.32,-6.0133 -2.4133,-1.96 -6.28,-1.56 -8.24,0.8533 -1.4133,1.72 -2.2133,4.0533 -1.6266,6.2933 0.6133,2.6134 1.2133,5.2267 1.8266,7.84 -0.3333,4.2 -0.5733,8.4 -0.5866,12.6267 -1.24,6.72 -3.8267,13.08 -5.7067,19.6267 -3.6933,12.5733 -6.2133,25.68 -11.8,37.64 0.053,-0.1467 0.12,-0.28 0.1867,-0.4134 -2.2934,5.1867 -4.4,10.2667 -6.8667,15.88 0.013,-0.04 0.027,-0.067 0.04,-0.1066 -16.0267,33.48 -33.9333,66.0666 -51.44,98.7999 -11.8,21.4534 -21.6267,44.44 -36.7867,63.8267 -10.4933,13.5867 -23.88,25.1333 -36.08,37.3333 -1.32,0.3067 -1.88,1.7067 -2.2533,2.8667 -0.48,2.6133 3.24,3.7067 4.1867,1.2933 -0.067,0.1734 -0.1334,0.2934 -0.2667,0.4667 3.4133,-3.6667 6.76,-6.8 10.5067,-10.3733 -0.027,0.027 -0.053,0.053 -0.08,0.08 -0.04,0.04 -0.08,0.08 -0.12,0.12 15.2666,-13.88 30.9466,-28.1867 42.08,-45.92 8.5333,-14.8 18.08,-29.0667 26.4933,-44.0534 22.7867,-39.2933 45.4133,-78.6399 62.5333,-120.7999 4.7734,-12.4934 6.2267,-25.9734 9.84,-38.8134 0.8667,-2.28 1.56,-4.56 2.1334,-6.8533 7.88,24.32 22.8133,45.6133 36.6933,66.9733 15.64,22.8134 29.8133,46.4933 43.5467,70.5467 25.0666,43.2933 45.4533,89 60.4266,136.7866 7.8267,25.48 18.3467,51.2667 20.8934,77.7867 -0.5734,1.3867 0.5866,3.1067 2.0533,3.1067 1.4267,-0.013 2.3333,-1.44 2.3067,-2.76 3.0933,-12.1067 -1.9067,-24.8134 -4.9467,-36.7867 -6.6,-26.6133 -16.9333,-52.3467 -25.4133,-78.4933 -20.92,-57.0667 -45.9067,-112.9334 -74.5067,-166.6667 -14.2667,-25.8933 -30.4133,-51.28 -44.6,-77.4666 11.08,8.5866 22.48,16.8133 34.6533,23.72 16.8,8.9333 34.7734,15.48 52.6134,22.0533 60.44,24.04 125.2533,31.6267 189.72,35.9467 1.3066,0.027 3.0933,0.4266 4.2,-0.5067 1.3466,-1.1467 0.8266,-3.2933 -0.7734,-3.8533"
         style="fill:#cbe3ac;fill-opacity:1;fill-rule:nonzero;stroke:none;stroke-width:0.133333" />
      <path
         id="path37"
         d="m 3984.3732,2653.366 c 2.9734,13.0667 11.3734,30.96 13.4,35.28 12.36,25 28.5067,47.76 43.3734,71.3867 29.08,42.8266 62.2,82.8266 90.16,126.4133 6.3866,10.7467 12.0533,21.9467 17.16,33.36 3.6133,7.9467 4.64,16.72 10,23.9333 1.3333,1.84 3.8666,5.7467 6.6266,5.7467 2.4934,0.5733 5.1334,-2.4667 2.6534,-4.3467 -3.9867,-8.3066 -6.7334,-17.0533 -9.32,-25.9333 -4.8667,-12.8933 -11.04,-25.3333 -17.96,-37.2667 -14.3867,-24.5066 -32.7467,-46.24 -48.6667,-69.7066 -28.68,-39.5867 -60.9067,-77.52 -80.8933,-122.5334 -5.9867,-14.4266 -12.5867,-28.8933 -15.84,-44.2133 -0.2934,-1.88 -0.7467,-3.84 -2.3734,-5.2133 0.24,-2.76 -0.9333,-5.6534 -4.3066,-7.5334 -0.4,-0.027 -0.7867,-0.027 -1.1734,-0.04 -0.9333,-0.2666 -1.9333,-0.32 -2.96,-0.1066 -49.0533,-2.2934 -98.72,3.6933 -147.9333,4.28 -33.5733,-1.5067 -68.1067,-4.8534 -100.84,-14.52 -12.9733,-3.8134 -25.68,-8.4667 -38.4133,-12.9734 -2.4134,-0.76 -6.16,-2.0133 -7.68,0.9067 -1.6934,3.24 2.8666,4.8533 5.0133,5.88 43.76,21.2933 91.6933,31.68 140.2,32.5867 46.36,-0.6267 92.4133,-6 138.8267,-3 -7.4134,11.6133 -13.8267,23.9866 -20.6267,36.04 -15.2667,26.8933 -29.9067,54.5866 -44.7067,82.24 -13.9333,27.2 -25.96,55.2133 -41.4,81.6533 -19.9733,36.08 -43.6266,70.9067 -68.4133,103.92 -13.0933,17.12 -25.8933,34.6133 -37.28,53.0667 -1.1867,1.6 -3.0533,4.1866 -0.5467,5.52 1,0.48 2.24,0.08 2.8134,-0.8667 1.76,-2.6267 3.3866,-5.4533 5.3333,-8.04 37.6267,-44.9067 75.8267,-89.84 104.2133,-141.5067 23.9067,-43.04 44.7334,-88.2666 70.24,-130.5466 13.24,-24.32 26.6267,-49.7734 41.32,-73.8667"
         style="fill:#cbe3ac;fill-opacity:1;fill-rule:nonzero;stroke:none;stroke-width:0.133333" />
      <path
         id="path38"
         d="m 4771.0532,2803.806 c -25.56,-2.1067 -50.2933,-7.92 -74.72,-16.1333 -53.6133,-16.8667 -105.7466,-39.2534 -160.6133,-51.8267 -33.2133,-6.04 -67.12,-13.1067 -101.0133,-11.1733 -0.24,-0.3867 -0.48,-0.76 -0.7867,-1.12 -1.4533,-1.2267 -3.0133,-1.4667 -4.44,-1.12 -2.76,-1.3067 -6.36,0.04 -8.7467,2.2266 -17.4666,11.1467 -27.08,31.1867 -35.8666,49.2934 -20.72,46.2 -33.0534,96.7333 -47.3067,145.3733 -10.5867,34.5867 -16.2933,72.4267 -37.0933,102.68 0.013,-0.013 0,-0.013 -0.013,0 -1.9466,-0.1733 -3.1066,2.1333 -1.9866,3.7467 11.8666,9.8533 38.64,-82.28 42.1733,-92.9334 10.68,-31.9066 21.3733,-64.1733 31.8667,-96.3066 10.3466,-25.9867 21.6266,-55.88 36.5733,-79.1734 5.3733,-7.2666 10.6267,-14.76 17.3467,-20.8666 11.3866,82.9733 67.0133,153.5333 117.68,217.7466 31.4933,41.7067 59.44,85.9467 87.3333,130.1067 9.88,15.2 20.2667,29.9467 25.64,47.6 0.3867,1.3467 0.6667,3.4667 2.3867,3.7333 1.4933,0.2667 2.84,-0.9733 2.6133,-2.56 -1.12,-3.2933 -2.04,-6.7066 -3.44,-9.9066 -10.76,-25.8667 -28.7733,-47.88 -43.0933,-71.8 -62.0667,-103.28 -151.9734,-194.7067 -178.4934,-315.52 0,0.067 0,0.08 0.013,0.1466 -0.013,-0.067 -0.013,-0.1333 -0.027,-0.2 37.7867,-1.7866 76.4933,7 113.48,14.1467 81.5467,21.24 161.0266,56.6667 246.1066,61.64 5.68,0.4667 11.44,0.053 17,-0.8667 1.3734,-0.72 1.6267,-2.64 0.4267,-3.6666 -14.04,-0.84 -28.76,-1.5467 -43,-3.2667"
         style="fill:#cbe3ac;fill-opacity:1;fill-rule:nonzero;stroke:none;stroke-width:0.133333" />
      <path
         id="path39"
         d="m 4056.6266,2348.3527 c -22.3734,9.88 -45.2267,19.4533 -68.6534,26.9866 -2.08,-0.1466 -3.1066,2.5334 -1.5733,3.88 3.16,1.5334 6.7867,-1.3866 10.0533,-1.8133 30.04,-7.04 59.7467,-17.64 88.3467,-29.4533 51.8933,-23.7067 98.16,-57.84 142.2133,-93.6667 -0.1866,0.1467 -0.3733,0.3067 -0.5733,0.4533 26.3333,-21.1333 49.5867,-45.2666 77.7867,-64.48 7.56,-5.6 14.6133,-11.92 22.3066,-17.2133 -4.6933,27.3333 -6.6266,55.0267 -9.2533,82.6533 -4.4,33.0134 -6.6533,66.24 -6.8133,99.5734 -3.4267,69.7866 -0.36,139.9866 10.0533,209.2 3.7733,26.2266 6.0533,53.1066 14.7467,78.5066 -0.013,1.3867 -0.2267,3.1867 1.7733,3.68 3.0267,0.4134 2.92,-3.2 2.4267,-5.28 -1.16,-12.5866 -4.8534,-24.8 -6.5334,-37.3466 -5.6666,-38.9334 -12.04,-78.16 -13.5333,-117.6534 -3.0533,-43.4133 -1.6,-87.1866 1.8933,-130.6266 1.8,-27.7467 3.0134,-54.6 7.52,-82.24 0,0.027 -0.013,0.053 -0.013,0.08 0,0.04 -0.013,0.08 -0.013,0.1066 5.5066,-34.84 6.56,-70.2266 10.24,-105.2666 0.3733,0.1066 0.7466,0.24 1.12,0.3066 21.1466,12.24 38.3866,30.0534 55.8,46.9334 15.7866,13.9733 28.84,30.9866 45.16,44.44 23.7066,20.8266 46.2533,43.2 71.6,62.2 38.8533,27.84 78.16,57.0133 122.4,75.9066 6.88,2.84 11.32,-2.8266 4.5333,-7 -9.88,-4.9066 -19.8133,-9.88 -29.52,-15.2266 -24.8,-14.48 -49.5467,-29.5334 -72.6933,-46.6267 -33.2,-23.5333 -63.6134,-50.68 -91.4267,-80.44 -22.08,-23.52 -40.6933,-50.1733 -64.7067,-71.9333 -6.52,-6.5467 -28.7466,-25.4134 -41.4666,-25.68 -0.76,-0.84 -1.7467,-1.4934 -2.96,-1.72 -3.1067,-0.4 -4.84,0.88 -5.92,2.8666 -7.0534,1.3467 -13.3067,5.7467 -19.2667,9.6 -11.96,8.1467 -23.68,16.72 -34.9733,25.7734 -34.9467,28.5733 -66.6534,60.9466 -102.2,88.84 -36.5867,27.5733 -75.1867,54.28 -117.88,71.68"
         style="fill:#cbe3ac;fill-opacity:1;fill-rule:nonzero;stroke:none;stroke-width:0.133333" />
      <path
         id="path40"
         d="m 3588.8532,2083.5793 c 2.9467,1.64 5.9734,-0.4666 8.2267,-2.3466 8.96,-7.24 18.8267,-15.3867 28.7733,-21.8267 57.5867,-37.16 114.88,-74.8533 176.5734,-104.9866 54.36,-26.8534 110.64,-49.1467 167.68,-69.56 39.4933,-15.0267 80.1333,-27.1867 118.4933,-45 -16.8533,29.68 -27.3333,62.9066 -36.8533,95.6133 -12.1734,38.76 -20.9734,78.2533 -29.5867,118.0666 -3.5733,22.2 -5.4133,44.5867 -8.88,66.7734 -2.6533,14.84 -7.2933,29.24 -9.8933,44.0933 -1.3334,5.6133 -2.8934,11.2267 -4.9867,16.6533 -0.8667,2.9334 -5.08,10.56 -0.6533,11.9734 1.7333,0.36 3.52,-1.2 4.3733,-2.5067 2.4933,-4.5467 2.6267,-9.3733 3.8667,-14.6 2.5333,-16.0667 6.2933,-31.7733 10.2133,-47.52 4.3333,-24.64 7.9867,-49.3733 13.5067,-73.7867 13.0666,-50.5066 27.5466,-101.2399 44.6666,-150.7333 7.52,-23.2266 14.68,-46.96 28.2667,-67.5333 0.5733,-0.7067 1.2,-1.4 1.8,-2.12 1.7467,-0.6667 3.3733,-1.52 4.6933,-2.8267 4.4134,-6.5866 -1.0133,-11.0266 -6.8,-10.88 -0.8266,-1.48 -2.3733,-2.7066 -4.76,-3.0533 -31.76,-8.1467 -59.8533,-26.3333 -90.8933,-36.8 -34.7733,-14.36 -67.88,-32.3067 -103.3867,-45.0133 -58.8533,-25.8134 -122.24,-45.88 -187.2,-43.16 -5.7466,-2.5067 -6.3333,7.08 -0.5866,5.7066 43.8266,-0.3066 87.7066,7.3867 129.1866,21.72 38.6934,15.4 77.4267,31.1334 114.6534,49.92 19.4,10.9734 40.6533,20.5867 61.4133,29.0667 21.7867,8.9867 42.48,20.8267 65.3067,26.8 -41.5067,13.2133 -81.9334,30.0533 -122.4267,46.2933 -89.9733,33.3334 -178.52,72.24 -260.16,123.1867 -31.0267,20.84 -62.5067,41.04 -93.1467,62.4533 -8.2,6.2 -15.96,13.08 -22.8,20.6533 -1.1466,1.9067 -0.32,4.0934 1.32,5.28"
         style="fill:#cbe3ac;fill-opacity:1;fill-rule:nonzero;stroke:none;stroke-width:0.133333" />
      <path
         id="path41"
         d="m 5148.1999,2046.446 c -7.6134,-4.3733 -15.1467,-9.1467 -22.7467,-13.6 -38.3733,-22.3467 -75.5733,-46.9066 -117.88,-61.3333 -79.2667,-33.5467 -162.2267,-56.8533 -244.3067,-82.7067 0.7867,-0.8266 1.5734,-1.64 2.4134,-2.3733 6.0133,-8.0667 12.9333,-15.1867 21.52,-20.5467 13.7466,-9.3466 27,-19.3733 40.4133,-29.2 17.3733,-10.6533 35.32,-20.6533 53.1733,-30.5333 25.9867,-12.9867 53.7734,-23.0267 82.0667,-30.0133 20.0667,-4.1734 41.0933,-9.56 61.92,-10.0267 21.16,-0.5867 42.2667,-2.1867 63.4267,-2.6133 1.04,0.6 2.4266,0.2266 3.0266,-0.84 1.04,-1.8267 -0.8,-3.6534 -2.6533,-3.56 -27.5333,-1.6 -55.24,-3.6534 -82.8933,-2.12 -46,4.9066 -91.8,16.5466 -133.3467,37.2 -19.32,10.7733 -41.0667,21.4666 -59.5333,34.44 -19,15.5466 -42.84,25.7866 -57.8534,45.7866 -3.2,3.6934 -8.88,7.0934 -11.3466,11.4134 -1.64,1.04 -2.9067,2.6 -3.4,4.64 -1.0267,4.0133 1,6.8533 3.96,8.7333 6.16,21.0533 10.0533,42.44 18.0533,63.2267 18.04,50.3333 42.6667,98.1733 62.52,147.7866 10.12,26.3067 12.3067,55.5467 19.0533,82.9067 -0.3066,0.5733 -0.36,1.28 -0.08,1.92 0.84,1.96 3.6534,1.5466 4.3467,-0.2667 0.4667,-7.44 -0.1467,-15.1733 -0.76,-22.68 -4.0133,-39.2667 -14.8133,-78.5333 -30.32,-115.12 -13.0533,-28.7467 -23.2133,-58.5867 -35.4267,-87.6933 -7.92,-21 -14.7466,-42.7867 -20.88,-64.5333 41.6667,12.4933 84.6934,21.3466 126.1334,34.7466 45.84,13.8934 90.5733,31.3467 135.0133,49.16 43.4,15.4133 80.7467,43.48 122.9067,61.52 0.12,0.1333 0.2533,0.2667 0.4133,0.3733 2.7067,2.0267 5.5867,-2.1866 3.0667,-4.0933"
         style="fill:#cbe3ac;fill-opacity:1;fill-rule:nonzero;stroke:none;stroke-width:0.133333" />
      <path
         id="path42"
         d="m 4335.8532,1667.2327 c 9.28,-3.12 18.4,-7.6 27.2534,-12.1333 38.8133,-19.3467 75.5733,-43.0134 109.0933,-70.5467 28.76,-26.4133 56.5467,-54.2667 87.2133,-78.7733 11.0667,-9.8534 21.4667,-20.64 33.0534,-29.8934 -3.8534,14.08 -4.96,27.64 -7.84,42.64 -9.5467,45.92 -14.8,93.2934 -18.6134,140.1734 -5.8133,66.9866 -9.48,136.12 9.96,201.44 0.4667,1.1066 1.84,1.6 2.9067,1.12 2.0533,-0.96 1.0133,-3.0534 0.6,-4.7067 -7.64,-38.8667 -9.04,-78.9333 -7.8,-118.6267 3.6533,-68.5333 14.3867,-136.16 28.3467,-203.4533 4.2933,-19.8133 5.9866,-40.0667 10.3466,-59.8133 25.8,40.1333 54.32,78.5866 84.88,115.2 28.6533,27.8933 57.9333,58.52 95.2267,74.4133 3.28,2.5733 6,-2.64 2.24,-3.8133 -35.1867,-26.8 -68.8267,-55.9067 -96.64,-90.6267 -27.6,-37.96 -57.4933,-74.9733 -80.0533,-116.32 -0.2934,-0.76 -0.6267,-1.44 -1,-2.0533 -0.093,-0.5734 -0.2267,-1.1467 -0.44,-1.7334 -2.6934,-6.3733 -12.04,-5.1733 -14.1334,1 -0.16,0.6267 -0.3733,1.2534 -0.5333,1.88 -1.0933,0.24 -2.1333,0.6534 -3.0533,1.2667 -17.3867,9.5333 -31.6134,23.6533 -46.1734,36.88 -14.9066,13.0267 -30.7866,24.48 -44.3733,39.04 -20.8667,20.1867 -39.68,43.8667 -62.9733,61.6667 -22.96,18.2666 -46.5067,35.7733 -72.1734,50.2666 -11.2,6.8 -22.6133,13.36 -33.8666,19.9867 -2.0934,1.0133 -5.28,2.84 -2.64,5.1733 0.4133,0.24 0.8133,0.3467 1.1866,0.3467"
         style="fill:#cbe3ac;fill-opacity:1;fill-rule:nonzero;stroke:none;stroke-width:0.133333" />
      <path
         id="path43"
         d="m 4400.1732,1214.7794 c 8.6134,2.5866 28.0667,-31.9334 34.1867,-39.52 21.7733,-35.1734 34.9467,-75.48 45.2267,-115.4534 10.2533,-43.84 25.28,-87.1466 56.4533,-121.15994 11.24,-10.78666 23.2,-22.08 37.1067,-29.50666 21.68,72.70666 48.1733,144.52 86.7733,210.1866 32.7866,57.1334 71.72,112.1334 121,156.3467 0.027,0.2267 0.08,0.44 0.1733,0.6533 0.8267,2 3.9067,1.5467 4.4133,-0.4266 0.12,-2.8267 -1.2,-5.5334 -2.92,-7.7467 -27.6133,-31.92 -54.2933,-65.0533 -77.48,-100.44 -25.7066,-39.3733 -46.1733,-82.0933 -65.8666,-124.72 -17.88,-41.5333 -31.88,-84.39997 -48.44,-126.47997 -1.4133,-4.12 -3.6267,-8 -5.1733,-12.04 30.28,-12.16 61.2933,8.18667 88.5333,20.25333 19.48,8.06667 38.36,17.74667 57.6933,26.98667 38.28,16.77333 78.4133,31.12 119.2133,40.23999 33.7734,7.3467 68.1734,15.39998 102.8934,14.70668 1.7733,1.3333 4.16,-0.7467 3.2933,-2.6934 -0.56,-1.2533 -1.88,-1.5466 -3.1067,-1.76 -6.5333,-1.4933 -13.4533,-1.48 -20.0666,-2.87998 -52.0134,-7.3733 -102.52,-21.91996 -150.88,-42.23996 -36.0667,-14.50666 -68.7734,-33.73333 -104.5734,-49.22666 -26.5066,-13.21334 -56.8933,-28.2 -87.0666,-19.68 -4.08,1.37333 -9.7733,2.01333 -13.92,4.25333 -1.12,-0.33333 -2.3867,-0.46667 -3.8133,-0.28 -36.1867,13.2 -63.0667,46.56 -79.9467,80.22667 -18.5733,36.6133 -23.4533,78.04 -33.5067,117.36 -7.16,25.92 -16.84,51.12 -30.12,74.5733 -9.5733,15.7467 -20.2666,31 -30.4,46.3867 -0.72,0.3733 -1.24,1.12 -1.24,1.9733 0,0.9733 0.6667,1.8267 1.56,2.1067"
         style="fill:#cbe3ac;fill-opacity:1;fill-rule:nonzero;stroke:none;stroke-width:0.133333" />
      <path
         id="path44"
         d="m 4668.5065,482.87274 c 0.6534,4.81333 2.7467,10.10667 3.6267,13.90667 6.2933,24.97333 15.96,48.85333 26.1067,72.48 18.92,39.93333 41.3733,78.11999 69.9066,112.09333 26.9467,34.66666 58.8134,66.35999 76.2267,107.33333 0.64,2.56 4.7467,1.88 4.3333,-0.86667 -4.8,-14.12 -8.5866,-29.32 -16.5333,-42.36 -8.2667,-17.36 -20.3867,-32.21333 -33.5067,-46.12 -31.68,-36.76 -56.9466,-78.62666 -77.32,-122.62666 -12.4533,-28.76 -22.6266,-58.53333 -34.9733,-87.37333 22.5733,7.21333 45.8533,12.16 69.3733,15.4 50.8534,9.84 102.4667,14.06666 153.9867,19.09333 40.48,5.70667 82.12,13.22667 122.6,20.10667 30.6667,7.98666 60.7867,18.44 90.2133,29.85333 17.92,-2.18667 -55.1733,-29.57333 -60.52,-31.25333 -18.9733,-7.73334 -38.7066,-13.44 -58.88,-17.09334 -41.9333,-8.68 -84.08,-16.37333 -126.4266,-22.78666 -65,-7.12 -130.6934,-15.17334 -194.12,-32.24 0.2266,-0.44 0.4266,-0.88 0.6266,-1.32 6.3734,-8.86667 13.7734,-16.97333 20.9067,-25.21333 32.52,-34.81334 74.08,-61.38667 120.48,-73.33334 54.9733,-18.09333 111.4267,-36.54666 156.9333,-73.67999 3.2934,-3 17.8934,-10.88 13.1867,-15.92 -1,-0.64 -2.2533,-0.30667 -2.9467,0.6 -7.9333,3.81333 -14.4266,9.76 -21.5866,15.02666 -33.9067,25.96 -74.5467,41.84 -115.6267,52.56 -25.88,6.13333 -52.5867,9.26667 -77.76,18.13333 -22.92,9.13334 -44.6267,19.92 -63.5067,36.22667 -12.2533,9.12 -50.8666,45.77333 -49.6666,66.50666 -1.5733,1.74667 -2.3067,4.24 -1.4133,7.32 1.1333,2.89334 3.5866,4.38667 6.2799,5.54667"
         style="fill:#cbe3ac;fill-opacity:1;fill-rule:nonzero;stroke:none;stroke-width:0.133333" />
    </g>
  </g>
  <text
     xml:space="preserve"
     style="font-style:normal;font-variant:normal;font-weight:normal;font-stretch:normal;font-size:1548.94px;font-family:Cantarell;-inkscape-font-specification:Cantarell;text-align:start;writing-mode:lr-tb;direction:ltr;text-anchor:start;fill:#ffffff;stroke:none;stroke-width:0.968085"
     x="648.51593"
     y="1727.0471"
     id="text45"
     inkscape:label="bash"><tspan
       sodipodi:role="line"
       id="tspan45"
       x="648.51593"
       y="1727.0471"
       style="font-style:normal;font-variant:normal;font-weight:bold;font-stretch:normal;font-size:1548.94px;font-family:CommitMono;-inkscape-font-specification:'CommitMono Bold';stroke:none;stroke-width:0.968085">&gt;_</tspan></text>
</svg>
